<svg xmlns="http://www.w3.org/2000/svg" xmlns:xlink="http://www.w3.org/1999/xlink" contentStyleType="text/css" data-diagram-type="DESCRIPTION" height="689px" preserveAspectRatio="none" style="width:1104px;height:689px;background:#FFFFFF;" version="1.1" viewBox="0 0 1104 689" width="1104px" zoomAndPan="magnify"><?plantuml 1.2026.4beta2?><defs/><g><!--cluster Mem?ria TJSC--><g class="cluster" data-qualified-name="Mem.ria TJSC" data-source-line="1" id="ent0002"><path d="M8.5,6 L118.2734,6 A3.75,3.75 0 0 1 120.7734,8.5 L127.7734,28.2969 L1086.5,28.2969 A2.5,2.5 0 0 1 1089,30.7969 L1089,672.41 A2.5,2.5 0 0 1 1086.5,674.91 L8.5,674.91 A2.5,2.5 0 0 1 6,672.41 L6,8.5 A2.5,2.5 0 0 1 8.5,6" fill="none" style="stroke:#000000;stroke-width:1.5;"/><line style="stroke:#000000;stroke-width:1.5;" x1="6" x2="127.7734" y1="28.2969" y2="28.2969"/><text fill="#000000" font-family="sans-serif" font-size="14" font-weight="700" lengthAdjust="spacing" textLength="108.7734" x="10" y="20.9951">Mem&#243;ria TJSC</text></g><!--cluster client/src--><g class="cluster" data-qualified-name="Mem.ria TJSC.client.src" data-source-line="2" id="ent0003"><path d="M307.5,235.3 L381.2002,235.3 A3.75,3.75 0 0 1 383.7002,237.8 L390.7002,257.5969 L922.5,257.5969 A2.5,2.5 0 0 1 925,260.0969 L925,640.41 A2.5,2.5 0 0 1 922.5,642.91 L307.5,642.91 A2.5,2.5 0 0 1 305,640.41 L305,237.8 A2.5,2.5 0 0 1 307.5,235.3" fill="none" style="stroke:#000000;stroke-width:1.5;"/><line style="stroke:#000000;stroke-width:1.5;" x1="305" x2="390.7002" y1="257.5969" y2="257.5969"/><text fill="#000000" font-family="sans-serif" font-size="14" font-weight="700" lengthAdjust="spacing" textLength="72.7002" x="309" y="250.2951">client/src</text></g><!--cluster scripts--><g class="cluster" data-qualified-name="Mem.ria TJSC.scripts" data-source-line="11" id="ent0011"><path d="M40.5,57 L94.8818,57 A3.75,3.75 0 0 1 97.3818,59.5 L104.3818,79.2969 L289.5,79.2969 A2.5,2.5 0 0 1 292,81.7969 L292,167.8 A2.5,2.5 0 0 1 289.5,170.3 L40.5,170.3 A2.5,2.5 0 0 1 38,167.8 L38,59.5 A2.5,2.5 0 0 1 40.5,57" fill="none" style="stroke:#000000;stroke-width:1.5;"/><line style="stroke:#000000;stroke-width:1.5;" x1="38" x2="104.3818" y1="79.2969" y2="79.2969"/><text fill="#000000" font-family="sans-serif" font-size="14" font-weight="700" lengthAdjust="spacing" textLength="53.3818" x="42" y="71.9951">scripts</text></g><!--cluster server--><g class="cluster" data-qualified-name="Mem.ria TJSC.server" data-source-line="14" id="ent0013"><path d="M334.5,57 L385.7578,57 A3.75,3.75 0 0 1 388.2578,59.5 L395.2578,79.2969 L626.5,79.2969 A2.5,2.5 0 0 1 629,81.7969 L629,167.8 A2.5,2.5 0 0 1 626.5,170.3 L334.5,170.3 A2.5,2.5 0 0 1 332,167.8 L332,59.5 A2.5,2.5 0 0 1 334.5,57" fill="none" style="stroke:#000000;stroke-width:1.5;"/><line style="stroke:#000000;stroke-width:1.5;" x1="332" x2="395.2578" y1="79.2969" y2="79.2969"/><text fill="#000000" font-family="sans-serif" font-size="14" font-weight="700" lengthAdjust="spacing" textLength="50.2578" x="336" y="71.9951">server</text></g><!--cluster docs--><g class="cluster" data-qualified-name="Mem.ria TJSC.docs" data-source-line="17" id="ent0015"><path d="M663.5,65 L700.7715,65 A3.75,3.75 0 0 1 703.2715,67.5 L710.2715,87.2969 L1062.5,87.2969 A2.5,2.5 0 0 1 1065,89.7969 L1065,159.8 A2.5,2.5 0 0 1 1062.5,162.3 L663.5,162.3 A2.5,2.5 0 0 1 661,159.8 L661,67.5 A2.5,2.5 0 0 1 663.5,65" fill="none" style="stroke:#000000;stroke-width:1.5;"/><line style="stroke:#000000;stroke-width:1.5;" x1="661" x2="710.2715" y1="87.2969" y2="87.2969"/><text fill="#000000" font-family="sans-serif" font-size="14" font-weight="700" lengthAdjust="spacing" textLength="36.2715" x="665" y="79.9951">docs</text></g><!--entity components--><g class="entity" data-qualified-name="Mem.ria TJSC.client.src.components" data-source-line="3" id="ent0004"><path d="M409.2,463.32 L518.7986,463.32 A3.75,3.75 0 0 1 521.2986,465.82 L528.2986,485.6169 L542.7986,485.6169 A2.5,2.5 0 0 1 545.2986,488.1169 L545.2986,500.1169 A2.5,2.5 0 0 1 542.7986,502.6169 L409.2,502.6169 A2.5,2.5 0 0 1 406.7,500.1169 L406.7,465.82 A2.5,2.5 0 0 1 409.2,463.32" fill="#F1F1F1" style="stroke:#181818;stroke-width:0.5;"/><line style="stroke:#181818;stroke-width:0.5;" x1="406.7" x2="528.2986" y1="485.6169" y2="485.6169"/><text fill="#000000" font-family="sans-serif" font-size="14" font-weight="700" lengthAdjust="spacing" textLength="96.5986" x="416.7" y="479.3151">components</text></g><!--entity pages--><g class="entity" data-qualified-name="Mem.ria TJSC.client.src.pages" data-source-line="4" id="ent0005"><path d="M409.84,343.52 L470.1584,343.52 A3.75,3.75 0 0 1 472.6584,346.02 L479.6584,365.8169 L494.1584,365.8169 A2.5,2.5 0 0 1 496.6584,368.3169 L496.6584,380.3169 A2.5,2.5 0 0 1 494.1584,382.8169 L409.84,382.8169 A2.5,2.5 0 0 1 407.34,380.3169 L407.34,346.02 A2.5,2.5 0 0 1 409.84,343.52" fill="#F1F1F1" style="stroke:#181818;stroke-width:0.5;"/><line style="stroke:#181818;stroke-width:0.5;" x1="407.34" x2="479.6584" y1="365.8169" y2="365.8169"/><text fill="#000000" font-family="sans-serif" font-size="14" font-weight="700" lengthAdjust="spacing" textLength="47.3184" x="417.34" y="359.5151">pages</text></g><!--entity data--><g class="entity" data-qualified-name="Mem.ria TJSC.client.src.data" data-source-line="5" id="ent0006"><path d="M582.7,463.32 L631.3084,463.32 A3.75,3.75 0 0 1 633.8084,465.82 L640.8084,485.6169 L655.3084,485.6169 A2.5,2.5 0 0 1 657.8084,488.1169 L657.8084,500.1169 A2.5,2.5 0 0 1 655.3084,502.6169 L582.7,502.6169 A2.5,2.5 0 0 1 580.2,500.1169 L580.2,465.82 A2.5,2.5 0 0 1 582.7,463.32" fill="#F1F1F1" style="stroke:#181818;stroke-width:0.5;"/><line style="stroke:#181818;stroke-width:0.5;" x1="580.2" x2="640.8084" y1="485.6169" y2="485.6169"/><text fill="#000000" font-family="sans-serif" font-size="14" font-weight="700" lengthAdjust="spacing" textLength="35.6084" x="590.2" y="479.3151">data</text></g><!--entity lib--><g class="entity" data-qualified-name="Mem.ria TJSC.client.src.lib" data-source-line="6" id="ent0007"><path d="M447.69,579.61 L480.3091,579.61 A3.75,3.75 0 0 1 482.8091,582.11 L489.8091,601.9069 L504.3091,601.9069 A2.5,2.5 0 0 1 506.8091,604.4069 L506.8091,616.4069 A2.5,2.5 0 0 1 504.3091,618.9069 L447.69,618.9069 A2.5,2.5 0 0 1 445.19,616.4069 L445.19,582.11 A2.5,2.5 0 0 1 447.69,579.61" fill="#F1F1F1" style="stroke:#181818;stroke-width:0.5;"/><line style="stroke:#181818;stroke-width:0.5;" x1="445.19" x2="489.8091" y1="601.9069" y2="601.9069"/><text fill="#000000" font-family="sans-serif" font-size="14" font-weight="700" lengthAdjust="spacing" textLength="19.6191" x="455.19" y="595.6051">lib</text></g><!--entity App.tsx--><g class="entity" data-qualified-name="Mem.ria TJSC.client.src.App.tsx" data-source-line="7" id="ent0008"><rect fill="#F1F1F1" height="46.2969" rx="2.5" ry="2.5" style="stroke:#181818;stroke-width:0.5;" width="92.8691" x="531.57" y="340.02"/><rect fill="#F1F1F1" height="10" style="stroke:#181818;stroke-width:0.5;" width="15" x="604.4391" y="345.02"/><rect fill="#F1F1F1" height="2" style="stroke:#181818;stroke-width:0.5;" width="4" x="602.4391" y="347.02"/><rect fill="#F1F1F1" height="2" style="stroke:#181818;stroke-width:0.5;" width="4" x="602.4391" y="351.02"/><text fill="#000000" font-family="sans-serif" font-size="14" lengthAdjust="spacing" textLength="52.8691" x="546.57" y="373.0151">App.tsx</text></g><!--entity main.tsx--><g class="entity" data-qualified-name="Mem.ria TJSC.client.src.main.tsx" data-source-line="8" id="ent0009"><rect fill="#F1F1F1" height="46.2969" rx="2.5" ry="2.5" style="stroke:#181818;stroke-width:0.5;" width="100.498" x="659.75" y="340.02"/><rect fill="#F1F1F1" height="10" style="stroke:#181818;stroke-width:0.5;" width="15" x="740.248" y="345.02"/><rect fill="#F1F1F1" height="2" style="stroke:#181818;stroke-width:0.5;" width="4" x="738.248" y="347.02"/><rect fill="#F1F1F1" height="2" style="stroke:#181818;stroke-width:0.5;" width="4" x="738.248" y="351.02"/><text fill="#000000" font-family="sans-serif" font-size="14" lengthAdjust="spacing" textLength="60.498" x="674.75" y="373.0151">main.tsx</text></g><!--entity index.css--><g class="entity" data-qualified-name="Mem.ria TJSC.client.src.index.css" data-source-line="9" id="ent0010"><rect fill="#F1F1F1" height="46.2969" rx="2.5" ry="2.5" style="stroke:#181818;stroke-width:0.5;" width="105.2832" x="795.36" y="340.02"/><rect fill="#F1F1F1" height="10" style="stroke:#181818;stroke-width:0.5;" width="15" x="880.6432" y="345.02"/><rect fill="#F1F1F1" height="2" style="stroke:#181818;stroke-width:0.5;" width="4" x="878.6432" y="347.02"/><rect fill="#F1F1F1" height="2" style="stroke:#181818;stroke-width:0.5;" width="4" x="878.6432" y="351.02"/><text fill="#000000" font-family="sans-serif" font-size="14" lengthAdjust="spacing" textLength="65.2832" x="810.36" y="373.0151">index.css</text></g><!--entity scope-liferay-css.mjs--><g class="entity" data-qualified-name="Mem.ria TJSC.scripts.scope-liferay-css.mjs" data-source-line="12" id="ent0012"><rect fill="#F1F1F1" height="46.2969" rx="2.5" ry="2.5" style="stroke:#181818;stroke-width:0.5;" width="186.6582" x="61.67" y="100"/><rect fill="#F1F1F1" height="10" style="stroke:#181818;stroke-width:0.5;" width="15" x="228.3282" y="105"/><rect fill="#F1F1F1" height="2" style="stroke:#181818;stroke-width:0.5;" width="4" x="226.3282" y="107"/><rect fill="#F1F1F1" height="2" style="stroke:#181818;stroke-width:0.5;" width="4" x="226.3282" y="111"/><text fill="#000000" font-family="sans-serif" font-size="14" lengthAdjust="spacing" textLength="146.6582" x="76.67" y="132.9951">scope-liferay-css.mjs</text></g><!--entity index.ts (Express opcional)--><g class="entity" data-qualified-name="Mem.ria TJSC.server.index.ts .Express opcional." data-source-line="15" id="ent0014"><rect fill="#F1F1F1" height="46.2969" rx="2.5" ry="2.5" style="stroke:#181818;stroke-width:0.5;" width="229.5264" x="356.24" y="100"/><rect fill="#F1F1F1" height="10" style="stroke:#181818;stroke-width:0.5;" width="15" x="565.7664" y="105"/><rect fill="#F1F1F1" height="2" style="stroke:#181818;stroke-width:0.5;" width="4" x="563.7664" y="107"/><rect fill="#F1F1F1" height="2" style="stroke:#181818;stroke-width:0.5;" width="4" x="563.7664" y="111"/><text fill="#000000" font-family="sans-serif" font-size="14" lengthAdjust="spacing" textLength="189.5264" x="371.24" y="132.9951">index.ts (Express opcional)</text></g><!--entity arquitetura-uml.md--><g class="entity" data-qualified-name="Mem.ria TJSC.docs.arquitetura-uml.md" data-source-line="18" id="ent0016"><rect fill="#F1F1F1" height="46.2969" rx="2.5" ry="2.5" style="stroke:#181818;stroke-width:0.5;" width="177.2109" x="677.39" y="100"/><rect fill="#F1F1F1" height="10" style="stroke:#181818;stroke-width:0.5;" width="15" x="834.6009" y="105"/><rect fill="#F1F1F1" height="2" style="stroke:#181818;stroke-width:0.5;" width="4" x="832.6009" y="107"/><rect fill="#F1F1F1" height="2" style="stroke:#181818;stroke-width:0.5;" width="4" x="832.6009" y="111"/><text fill="#000000" font-family="sans-serif" font-size="14" lengthAdjust="spacing" textLength="137.2109" x="692.39" y="132.9951">arquitetura-uml.md</text></g><!--entity mapa-do-site.md--><g class="entity" data-qualified-name="Mem.ria TJSC.docs.mapa-do-site.md" data-source-line="19" id="ent0017"><rect fill="#F1F1F1" height="46.2969" rx="2.5" ry="2.5" style="stroke:#181818;stroke-width:0.5;" width="159.499" x="889.25" y="100"/><rect fill="#F1F1F1" height="10" style="stroke:#181818;stroke-width:0.5;" width="15" x="1028.749" y="105"/><rect fill="#F1F1F1" height="2" style="stroke:#181818;stroke-width:0.5;" width="4" x="1026.749" y="107"/><rect fill="#F1F1F1" height="2" style="stroke:#181818;stroke-width:0.5;" width="4" x="1026.749" y="111"/><text fill="#000000" font-family="sans-serif" font-size="14" lengthAdjust="spacing" textLength="119.499" x="904.25" y="132.9951">mapa-do-site.md</text></g><!--link client/src to components--><g class="link" data-entity-1="ent0003" data-entity-2="ent0004" data-link-type="dependency" data-source-line="23" id="lnk18"><path d="M451.59,263.15 C446.05,264.88 386.5,284.34 366,324.02 C353.29,348.62 354.52,361.12 366,386.32 C381.37,420.05 410.0935,443.3017 436.2035,459.7517" fill="none" id="client/src-to-components" style="stroke:#181818;stroke-width:1;"/><polygon fill="#181818" points="441.28,462.95,435.7975,454.7682,437.0496,460.2847,431.5331,461.5368,441.28,462.95" style="stroke:#181818;stroke-width:1;"/><text fill="#000000" font-family="sans-serif" font-size="13" lengthAdjust="spacing" textLength="22.9785" x="367" y="367.7369">usa</text></g><!--link client/src to pages--><g class="link" data-entity-1="ent0003" data-entity-2="ent0005" data-link-type="dependency" data-source-line="24" id="lnk19"><path d="M452,263.3 C452,267.44 452,309.66 452,337.2" fill="none" id="client/src-to-pages" style="stroke:#181818;stroke-width:1;"/><polygon fill="#181818" points="452,343.2,456,334.2,452,338.2,448,334.2,452,343.2" style="stroke:#181818;stroke-width:1;"/><text fill="#000000" font-family="sans-serif" font-size="13" lengthAdjust="spacing" textLength="22.9785" x="453" y="306.0869">usa</text></g><!--link pages to data--><g class="link" data-entity-1="ent0005" data-entity-2="ent0006" data-link-type="dependency" data-source-line="25" id="lnk20"><path d="M479.07,383.23 C493.08,393.11 510.46,405.36 526,416.32 C548.29,432.04 568.6697,446.4178 587.2397,459.5378" fill="none" id="pages-to-data" style="stroke:#181818;stroke-width:1;"/><polygon fill="#181818" points="592.14,463,587.0976,454.5398,588.0564,460.1149,582.4814,461.0736,592.14,463" style="stroke:#181818;stroke-width:1;"/><text fill="#000000" font-family="sans-serif" font-size="13" lengthAdjust="spacing" textLength="11.6099" x="549" y="429.3869">l&#234;</text></g><!--link pages to components--><g class="link" data-entity-1="ent0005" data-entity-2="ent0004" data-link-type="dependency" data-source-line="26" id="lnk21"><path d="M455.86,383.09 C460.33,405.08 466.4838,435.2405 470.9538,457.2105" fill="none" id="pages-to-components" style="stroke:#181818;stroke-width:1;"/><polygon fill="#181818" points="472.15,463.09,474.2753,453.4732,471.1531,458.1904,466.4359,455.0682,472.15,463.09" style="stroke:#181818;stroke-width:1;"/><text fill="#000000" font-family="sans-serif" font-size="13" lengthAdjust="spacing" textLength="51.9683" x="466" y="429.3869">comp&#245;e</text></g><!--link components to lib--><g class="link" data-entity-1="ent0004" data-entity-2="ent0007" data-link-type="dependency" data-source-line="27" id="lnk22"><path d="M476,503.1 C476,524.32 476,552.654 476,573.754" fill="none" id="components-to-lib" style="stroke:#181818;stroke-width:1;"/><polygon fill="#181818" points="476,579.754,480,570.754,476,574.754,472,570.754,476,579.754" style="stroke:#181818;stroke-width:1;"/><text fill="#000000" font-family="sans-serif" font-size="13" lengthAdjust="spacing" textLength="92.8853" x="477" y="545.6769">resolve assets</text></g><!--link client/src to index.css--><g class="link" data-entity-1="ent0003" data-entity-2="ent0010" data-link-type="dependency" data-source-line="28" id="lnk23"><path d="M452.54,263.05 C463.65,263.78 643.47,276.13 778,324.02 C789.34,328.06 795.7961,330.8806 806.3261,336.6406" fill="none" id="client/src-to-index.css" style="stroke:#181818;stroke-width:1;"/><polygon fill="#181818" points="811.59,339.52,805.6137,331.6916,807.2034,337.1205,801.7745,338.7102,811.59,339.52" style="stroke:#181818;stroke-width:1;"/><text fill="#000000" font-family="sans-serif" font-size="13" lengthAdjust="spacing" textLength="38.5557" x="727" y="306.0869">aplica</text></g><!--link scripts to client/src--><g class="link" data-entity-1="ent0011" data-entity-2="ent0003" data-link-type="dependency" data-source-line="29" id="lnk24"><path d="M292.1354,134.6655 C292.1938,134.7388 292.2524,134.8124 292.3112,134.8863 C293.253,136.0685 294.2631,137.3265 295.3354,138.6489 C297.4801,141.2938 299.8734,144.1966 302.4662,147.2662 C312.8375,159.545 326.4,174.495 340,186.3 C351.15,195.9775 363.595,205.4556 376.0223,214.2464 C382.236,218.6418 388.4453,222.8654 394.486,226.8561 C397.5064,228.8514 400.4847,230.7886 403.4003,232.6599 C404.1292,233.1277 404.8542,233.5915 405.5749,234.0509 C405.9353,234.2807 406.2946,234.5094 406.6529,234.737 C406.832,234.8508 401.9442,254.0472 402.1228,254.1605" fill="none" id="scripts-to-client/src" style="stroke:#181818;stroke-width:1;"/><polygon fill="#181818" points="407.1894,257.3745,401.7321,249.1758,402.9672,254.6961,397.4468,255.9312,407.1894,257.3745" style="stroke:#181818;stroke-width:1;"/><text fill="#000000" font-family="sans-serif" font-size="13" lengthAdjust="spacing" textLength="115.5908" x="370" y="207.3669">p&#243;s-processa CSS</text></g><!--link server to client/src--><g class="link" data-entity-1="ent0013" data-entity-2="ent0003" data-link-type="dependency" data-source-line="30" id="lnk25"><path d="M611.5551,170.3961 C611.201,171.2163 610.8337,172.0313 610.4526,172.8394 C609.6905,174.4557 608.8733,176.0447 607.9971,177.5935 C606.2447,180.6909 604.2563,183.6275 602,186.3 C590.1575,200.33 575.0594,212.0187 559.0252,221.6689 C551.008,226.494 542.7569,230.8094 534.5617,234.653 C534.3056,234.7731 539.4888,254.657 539.2328,254.7762" fill="none" id="server-to-client/src" style="stroke:#181818;stroke-width:1;"/><polygon fill="#181818" points="533.7936,257.3089,543.6409,257.136,538.3263,255.1983,540.264,249.8837,533.7936,257.3089" style="stroke:#181818;stroke-width:1;"/><text fill="#000000" font-family="sans-serif" font-size="13" lengthAdjust="spacing" textLength="127.6831" x="593" y="207.3669">serve build est&#225;tico</text></g><?plantuml-src RP6nJiCm48RtFCKf4mmEUmSaLB4WCOKNk3e7CZZnrUTKHIWFmyfQyGHvCToa3KdhnPBl--_kjtz6_O5l1FaprVt16uINftATmrS6m6UchQ4ct8dN8vWZLxDh8fLy2JYUbxKA0rwKhDcCbMaGv0_CHP3zLRr6qoI1QIhQ5rg6VTtSkMXlE7exsPxrY7PCoffNylYfOczHloVwoU_89zh7bK7Wvd7FdaJ0iJQkGNjxDQHoEkK0_ROrWKBhKRMrBUegyM96LJabKNVYNTPbsI8HfUuNES0AMi64PepaZ4-tWGp1H63xdoLOZZtU-b_A5kL1Tumn2k97EBiZG14Aah3mdrHK8rkZevCff77bh6S5t1z4iNSwVZ72kYopAPE4Ua2mQOsjW2Jqty5ezmS0?></g></svg>