<svg xmlns="http://www.w3.org/2000/svg" xmlns:xlink="http://www.w3.org/1999/xlink" contentStyleType="text/css" data-diagram-type="DESCRIPTION" height="977px" preserveAspectRatio="none" style="width:792px;height:977px;background:#FFFFFF;" version="1.1" viewBox="0 0 792 977" width="792px" zoomAndPan="magnify"><?plantuml 1.2026.4beta2?><defs/><g><!--cluster Museu TJSC--><g class="cluster" data-qualified-name="Museu TJSC" data-source-line="9" id="ent0007"><rect fill="none" height="802" rx="2.5" ry="2.5" style="stroke:#181818;stroke-width:1;" width="561.44" x="217.01" y="65.05"/><text fill="#000000" font-family="sans-serif" font-size="14" font-weight="700" lengthAdjust="spacing" textLength="91.6836" x="451.8882" y="80.0451">Museu TJSC</text></g><!--entity UC_Home--><g class="entity" data-qualified-name="Museu TJSC.UC_Home" data-source-line="10" id="ent0008"><ellipse cx="356.3947" cy="196.0529" fill="#F1F1F1" rx="83.0147" ry="19.0029" style="stroke:#181818;stroke-width:0.5;"/><text fill="#000000" font-family="sans-serif" font-size="14" lengthAdjust="spacing" textLength="137.7305" x="287.5294" y="200.7014">Navegar pela home</text></g><!--entity UC_Exposicoes--><g class="entity" data-qualified-name="Museu TJSC.UC_Exposicoes" data-source-line="11" id="ent0009"><ellipse cx="356.392" cy="270.0544" fill="#F1F1F1" rx="88.022" ry="20.0044" style="stroke:#181818;stroke-width:0.5;"/><text fill="#000000" font-family="sans-serif" font-size="14" lengthAdjust="spacing" textLength="149.249" x="281.7675" y="274.7028">Consultar exposi&#231;&#245;es</text></g><!--entity UC_Imagem--><g class="entity" data-qualified-name="Museu TJSC.UC_Imagem" data-source-line="12" id="ent0010"><ellipse cx="688.6029" cy="156.0486" fill="#F1F1F1" rx="73.8429" ry="17.1686" style="stroke:#181818;stroke-width:0.5;"/><text fill="#000000" font-family="sans-serif" font-size="14" lengthAdjust="spacing" textLength="115.9102" x="630.6478" y="160.697">Ampliar imagem</text></g><!--entity UC_Historia--><g class="entity" data-qualified-name="Museu TJSC.UC_Historia" data-source-line="13" id="ent0011"><ellipse cx="356.3887" cy="343.0477" fill="#F1F1F1" rx="77.1387" ry="17.8277" style="stroke:#181818;stroke-width:0.5;"/><text fill="#000000" font-family="sans-serif" font-size="14" lengthAdjust="spacing" textLength="123.8809" x="294.4482" y="347.6962">Consultar hist&#243;ria</text></g><!--entity UC_Escrita--><g class="entity" data-qualified-name="Museu TJSC.UC_Escrita" data-source-line="14" id="ent0012"><ellipse cx="356.3948" cy="665.053" fill="#F1F1F1" rx="99.8148" ry="22.363" style="stroke:#181818;stroke-width:0.5;"/><text fill="#000000" font-family="sans-serif" font-size="14" lengthAdjust="spacing" textLength="175.6494" x="268.5701" y="669.7014">Consultar hist&#243;ria escrita</text></g><!--entity UC_Oral--><g class="entity" data-qualified-name="Museu TJSC.UC_Oral" data-source-line="15" id="ent0013"><ellipse cx="356.3903" cy="506.0521" fill="#F1F1F1" rx="90.6103" ry="20.5221" style="stroke:#181818;stroke-width:0.5;"/><text fill="#000000" font-family="sans-serif" font-size="14" lengthAdjust="spacing" textLength="155.1211" x="278.8298" y="510.7005">Consultar hist&#243;ria oral</text></g><!--entity UC_Composicao--><g class="entity" data-qualified-name="Museu TJSC.UC_Composicao" data-source-line="16" id="ent0014"><ellipse cx="356.3927" cy="423.0545" fill="#F1F1F1" rx="123.3727" ry="27.0745" style="stroke:#181818;stroke-width:0.5;"/><text fill="#000000" font-family="sans-serif" font-size="14" lengthAdjust="spacing" textLength="226.5361" x="243.1246" y="427.703">Navegar composi&#231;&#227;o por gest&#227;o</text></g><!--entity UC_Atom--><g class="entity" data-qualified-name="Museu TJSC.UC_Atom" data-source-line="17" id="ent0015"><ellipse cx="356.3872" cy="585.0494" fill="#F1F1F1" rx="103.4472" ry="23.0894" style="stroke:#181818;stroke-width:0.5;"/><text fill="#000000" font-family="sans-serif" font-size="14" lengthAdjust="spacing" textLength="183.627" x="264.5737" y="589.6979">Acessar pesquisa no AtoM</text></g><!--entity UC_Visita--><g class="entity" data-qualified-name="Museu TJSC.UC_Visita" data-source-line="18" id="ent0016"><ellipse cx="356.3853" cy="121.0511" fill="#F1F1F1" rx="92.4553" ry="20.8911" style="stroke:#181818;stroke-width:0.5;"/><text fill="#000000" font-family="sans-serif" font-size="14" lengthAdjust="spacing" textLength="159.2773" x="276.7466" y="125.6995">Ver dados de visita&#231;&#227;o</text></g><!--entity UC_Dados--><g class="entity" data-qualified-name="Museu TJSC.UC_Dados" data-source-line="19" id="ent0017"><ellipse cx="356.3888" cy="747.0538" fill="#F1F1F1" rx="112.1688" ry="24.8338" style="stroke:#181818;stroke-width:0.5;"/><text fill="#000000" font-family="sans-serif" font-size="14" lengthAdjust="spacing" textLength="202.5625" x="255.1075" y="751.7022">Atualizar dados estruturados</text></g><!--entity UC_Publicar--><g class="entity" data-qualified-name="Museu TJSC.UC_Publicar" data-source-line="20" id="ent0018"><ellipse cx="356.3921" cy="829.0544" fill="#F1F1F1" rx="96.5221" ry="21.7044" style="stroke:#181818;stroke-width:0.5;"/><text fill="#000000" font-family="sans-serif" font-size="14" lengthAdjust="spacing" textLength="168.3623" x="272.211" y="833.7029">Publicar pacote est&#225;tico</text></g><!--entity Visitante--><g class="entity" data-qualified-name="Visitante" data-source-line="3" id="ent0002"><ellipse cx="88.0043" cy="211.4" fill="#F1F1F1" rx="8" ry="8" style="stroke:#181818;stroke-width:0.5;"/><path d="M88.0043,219.4 L88.0043,246.4 M75.0043,227.4 L101.0043,227.4 M88.0043,246.4 L75.0043,261.4 M88.0043,246.4 L101.0043,261.4" fill="none" style="stroke:#181818;stroke-width:0.5;"/><text fill="#000000" font-family="sans-serif" font-size="14" lengthAdjust="spacing" textLength="116.3887" x="29.81" y="275.8951">Visitante P&#250;blico</text></g><!--entity Pesquisador--><g class="entity" data-qualified-name="Pesquisador" data-source-line="4" id="ent0003"><ellipse cx="88.0115" cy="555.4" fill="#F1F1F1" rx="8" ry="8" style="stroke:#181818;stroke-width:0.5;"/><path d="M88.0115,563.4 L88.0115,590.4 M75.0115,571.4 L101.0115,571.4 M88.0115,590.4 L75.0115,605.4 M88.0115,590.4 L101.0115,605.4" fill="none" style="stroke:#181818;stroke-width:0.5;"/><text fill="#000000" font-family="sans-serif" font-size="14" lengthAdjust="spacing" textLength="104.583" x="35.72" y="619.8951">Pesquisador(a)</text></g><!--entity Museu--><g class="entity" data-qualified-name="Museu" data-source-line="5" id="ent0004"><ellipse cx="88.0073" cy="674.4" fill="#F1F1F1" rx="8" ry="8" style="stroke:#181818;stroke-width:0.5;"/><path d="M88.0073,682.4 L88.0073,709.4 M75.0073,690.4 L101.0073,690.4 M88.0073,709.4 L75.0073,724.4 M88.0073,709.4 L101.0073,724.4" fill="none" style="stroke:#181818;stroke-width:0.5;"/><text fill="#000000" font-family="sans-serif" font-size="14" lengthAdjust="spacing" textLength="164.0146" x="6" y="738.8951">Equipe Museu/Mem&#243;ria</text></g><!--entity Portal--><g class="entity" data-qualified-name="Portal" data-source-line="6" id="ent0005"><ellipse cx="88.0077" cy="896.4" fill="#F1F1F1" rx="8" ry="8" style="stroke:#181818;stroke-width:0.5;"/><path d="M88.0077,904.4 L88.0077,931.4 M75.0077,912.4 L101.0077,912.4 M88.0077,931.4 L75.0077,946.4 M88.0077,931.4 L101.0077,946.4" fill="none" style="stroke:#181818;stroke-width:0.5;"/><text fill="#000000" font-family="sans-serif" font-size="14" lengthAdjust="spacing" textLength="145.7354" x="15.14" y="960.8951">Equipe Portal/Liferay</text></g><!--entity Dev--><g class="entity" data-qualified-name="Dev" data-source-line="7" id="ent0006"><ellipse cx="88.0055" cy="785.4" fill="#F1F1F1" rx="8" ry="8" style="stroke:#181818;stroke-width:0.5;"/><path d="M88.0055,793.4 L88.0055,820.4 M75.0055,801.4 L101.0055,801.4 M88.0055,820.4 L75.0055,835.4 M88.0055,820.4 L101.0055,835.4" fill="none" style="stroke:#181818;stroke-width:0.5;"/><text fill="#000000" font-family="sans-serif" font-size="14" lengthAdjust="spacing" textLength="103.8311" x="36.09" y="849.8951">Mantenedor(a)</text></g><!--entity AtoM externo--><g class="entity" data-qualified-name="AtoM externo" data-source-line="38" id="ent0033"><ellipse cx="688.5982" cy="891.4" fill="#F1F1F1" rx="8" ry="8" style="stroke:#181818;stroke-width:0.5;"/><path d="M688.5982,899.4 L688.5982,926.4 M675.5982,907.4 L701.5982,907.4 M688.5982,926.4 L675.5982,941.4 M688.5982,926.4 L701.5982,941.4" fill="none" style="stroke:#181818;stroke-width:0.5;"/><text fill="#000000" font-family="sans-serif" font-size="14" lengthAdjust="spacing" textLength="94.3564" x="641.42" y="955.8951">AtoM externo</text></g><!--link Visitante to UC_Home--><g class="link" data-entity-1="ent0002" data-entity-2="ent0008" data-link-type="dependency" data-source-line="23" id="lnk19"><path d="M146.48,231.34 C188.23,224.29 238.9337,215.7189 282.7037,208.3289" fill="none" id="Visitante-to-UC_Home" style="stroke:#181818;stroke-width:1;"/><polygon fill="#181818" points="288.62,207.33,279.0797,204.8841,283.6898,208.1624,280.4115,212.7725,288.62,207.33" style="stroke:#181818;stroke-width:1;"/></g><!--link Visitante to UC_Exposicoes--><g class="link" data-entity-1="ent0002" data-entity-2="ent0009" data-link-type="dependency" data-source-line="24" id="lnk20"><path d="M146.48,247.31 C184.41,251.44 228.6453,256.2503 270.3253,260.7903" fill="none" id="Visitante-to-UC_Exposicoes" style="stroke:#181818;stroke-width:1;"/><polygon fill="#181818" points="276.29,261.44,267.7761,256.489,271.3194,260.8986,266.9098,264.4419,276.29,261.44" style="stroke:#181818;stroke-width:1;"/></g><!--link Visitante to UC_Imagem--><g class="link" data-entity-1="ent0002" data-entity-2="ent0010" data-link-type="dependency" data-source-line="25" id="lnk21"><path d="M105.62,202.47 C124.46,164.19 159.18,107.78 209.01,83.05 C364.3,6 574.6711,97.7717 652.6511,137.4017" fill="none" id="Visitante-to-UC_Imagem" style="stroke:#181818;stroke-width:1;"/><polygon fill="#181818" points="658,140.12,651.7889,132.4766,653.5426,137.8547,648.1644,139.6084,658,140.12" style="stroke:#181818;stroke-width:1;"/></g><!--link Visitante to UC_Historia--><g class="link" data-entity-1="ent0002" data-entity-2="ent0011" data-link-type="dependency" data-source-line="26" id="lnk22"><path d="M146.64,277.44 C165.93,288.46 187.9,299.81 209.01,308.05 C236.16,318.64 261.5514,325.3914 288.2014,331.0614" fill="none" id="Visitante-to-UC_Historia" style="stroke:#181818;stroke-width:1;"/><polygon fill="#181818" points="294.07,332.31,286.0994,326.5247,289.1795,331.2695,284.4346,334.3495,294.07,332.31" style="stroke:#181818;stroke-width:1;"/></g><!--link Visitante to UC_Composicao--><g class="link" data-entity-1="ent0002" data-entity-2="ent0014" data-link-type="dependency" data-source-line="27" id="lnk23"><path d="M113.65,279.42 C135.31,310.23 169.47,352.44 209.01,378.05 C226.31,389.25 240.8362,395.9381 260.6562,402.4081" fill="none" id="Visitante-to-UC_Composicao" style="stroke:#181818;stroke-width:1;"/><polygon fill="#181818" points="266.36,404.27,259.0456,397.6746,261.6068,402.7184,256.563,405.2796,266.36,404.27" style="stroke:#181818;stroke-width:1;"/></g><!--link Visitante to UC_Visita--><g class="link" data-entity-1="ent0002" data-entity-2="ent0016" data-link-type="dependency" data-source-line="28" id="lnk24"><path d="M137.22,202.46 C158.27,187.14 183.86,170.49 209.01,159.05 C232.56,148.35 253.8182,141.6708 278.2482,135.7608" fill="none" id="Visitante-to-UC_Visita" style="stroke:#181818;stroke-width:1;"/><polygon fill="#181818" points="284.08,134.35,274.3918,132.5783,279.2202,135.5257,276.2729,140.3541,284.08,134.35" style="stroke:#181818;stroke-width:1;"/></g><!--link Pesquisador to UC_Escrita--><g class="link" data-entity-1="ent0003" data-entity-2="ent0012" data-link-type="dependency" data-source-line="29" id="lnk25"><path d="M140.74,603.59 C161.81,610.92 186.47,619.21 209.01,626.05 C234.81,633.88 257.6055,640.181 282.6355,646.731" fill="none" id="Pesquisador-to-UC_Escrita" style="stroke:#181818;stroke-width:1;"/><polygon fill="#181818" points="288.44,648.25,280.7458,642.1019,283.6029,646.9842,278.7205,649.8412,288.44,648.25" style="stroke:#181818;stroke-width:1;"/></g><!--link Pesquisador to UC_Oral--><g class="link" data-entity-1="ent0003" data-entity-2="ent0013" data-link-type="dependency" data-source-line="30" id="lnk26"><path d="M140.71,566.43 C161.78,559.1 186.45,550.82 209.01,544.05 C236.42,535.82 261.213,529.1804 287.323,522.5804" fill="none" id="Pesquisador-to-UC_Oral" style="stroke:#181818;stroke-width:1;"/><polygon fill="#181818" points="293.14,521.11,283.4342,519.4376,288.2925,522.3353,285.3947,527.1936,293.14,521.11" style="stroke:#181818;stroke-width:1;"/></g><!--link Pesquisador to UC_Atom--><g class="link" data-entity-1="ent0003" data-entity-2="ent0015" data-link-type="dependency" data-source-line="31" id="lnk27"><path d="M140.68,585.05 C172.46,585.05 208.28,585.05 246.58,585.05" fill="none" id="Pesquisador-to-UC_Atom" style="stroke:#181818;stroke-width:1;"/><polygon fill="#181818" points="252.58,585.05,243.58,581.05,247.58,585.05,243.58,589.05,252.58,585.05" style="stroke:#181818;stroke-width:1;"/></g><!--link Museu to UC_Dados--><g class="link" data-entity-1="ent0004" data-entity-2="ent0017" data-link-type="dependency" data-source-line="32" id="lnk28"><path d="M170.38,717.19 C200.21,722 228.2367,726.5238 258.8367,731.4638" fill="none" id="Museu-to-UC_Dados" style="stroke:#181818;stroke-width:1;"/><polygon fill="#181818" points="264.76,732.42,256.5125,727.0368,259.8239,731.6231,255.2375,734.9345,264.76,732.42" style="stroke:#181818;stroke-width:1;"/></g><!--link Dev to UC_Dados--><g class="link" data-entity-1="ent0006" data-entity-2="ent0017" data-link-type="dependency" data-source-line="33" id="lnk29"><path d="M140.37,801.94 C180.43,791.71 230.8064,778.8538 275.7064,767.3938" fill="none" id="Dev-to-UC_Dados" style="stroke:#181818;stroke-width:1;"/><polygon fill="#181818" points="281.52,765.91,271.8103,764.26,276.6753,767.1465,273.7888,772.0115,281.52,765.91" style="stroke:#181818;stroke-width:1;"/></g><!--link Dev to UC_Publicar--><g class="link" data-entity-1="ent0006" data-entity-2="ent0018" data-link-type="dependency" data-source-line="34" id="lnk30"><path d="M140.37,817.75 C174.76,819.56 215.0483,821.6744 255.8683,823.8244" fill="none" id="Dev-to-UC_Publicar" style="stroke:#181818;stroke-width:1;"/><polygon fill="#181818" points="261.86,824.14,253.0828,819.6722,256.8669,823.877,252.6621,827.6611,261.86,824.14" style="stroke:#181818;stroke-width:1;"/></g><!--link Portal to UC_Publicar--><g class="link" data-entity-1="ent0005" data-entity-2="ent0018" data-link-type="dependency" data-source-line="35" id="lnk31"><path d="M161.09,899.8 C206.39,883.31 258.0921,864.4828 298.7121,849.6928" fill="none" id="Portal-to-UC_Publicar" style="stroke:#181818;stroke-width:1;"/><polygon fill="#181818" points="304.35,847.64,294.5246,846.9606,299.6517,849.3507,297.2617,854.4778,304.35,847.64" style="stroke:#181818;stroke-width:1;"/></g><!--link UC_Exposicoes to UC_Imagem--><g class="link" data-entity-1="ent0009" data-entity-2="ent0010" data-link-type="dependency" data-source-line="37" id="lnk32"><path d="M412.44,254.19 C433.58,247.89 457.88,240.4 479.76,233.05 C539.58,212.95 602.4541,189.1647 643.9441,173.1147" fill="none" id="UC_Exposicoes-to-UC_Imagem" style="stroke:#181818;stroke-width:1;stroke-dasharray:7,7;"/><polygon fill="#181818" points="649.54,170.95,639.703,170.4665,644.8768,172.7539,642.5893,177.9277,649.54,170.95" style="stroke:#181818;stroke-width:1;"/><text fill="#000000" font-family="sans-serif" font-size="13" lengthAdjust="spacing" textLength="63.0068" x="515.76" y="193.1169">&#171;include&#187;</text></g><!--link UC_Atom to AtoM externo--><g class="link" data-entity-1="ent0015" data-entity-2="ent0033" data-link-type="dependency" data-source-line="38" id="lnk34"><path d="M434.36,600.55 C450.53,606.34 466.65,614.25 479.76,625.05 C574.83,703.35 533.47,774.53 614.76,867.05 C622.45,875.8 627.0303,880.3439 636.4103,887.5839" fill="none" id="UC_Atom-to-AtoM externo" style="stroke:#181818;stroke-width:1;stroke-dasharray:7,7;"/><polygon fill="#181818" points="641.16,891.25,636.4795,882.5844,637.2019,888.1949,631.5914,888.9173,641.16,891.25" style="stroke:#181818;stroke-width:1;"/><text fill="#000000" font-family="sans-serif" font-size="13" lengthAdjust="spacing" textLength="73.4678" x="510.76" y="654.1169">redireciona</text></g><?plantuml-src XLHDRzGm4BtxLups18UszwfQgTfMAXKBAm6zei6PPYqvcM0xApx4Zq4zy0CG5wxxnnWxSUebM_NcUVEUFNupjgNx0871cNeRe3AET33SAeKwi8F5dV4cO1i8Dlk_dwpHl03qCC6Pjo7_kJSUAtOly6NY551cNGlG4QnxJ_tPcfhzRsSmaHFq7st3Bg0zUstkoU7NOSy4PTuwLj1ISUOLxPIATy2sjYICk2syltstMi1t1I2XHY-9DxYZ6XrqP16st52IVrXzl95rILnnwtiRX4fVElPc_sl_XtncNoTCC_bISzbqreZ2D5XJaxclKdHyxwtnuT6CM8O0BF4pT22ldNHYgcS8drEnGvibRsLzp1dDpNZV1uPExAv9v0-STQiXhv4Fhgx9--Jhq7ne6Iu3hxDArWSMt963IaR4GqMmIrELJipyOT0EJWWzMlCDiqwgSdteNGoowYe6fMZJnzcDTQ5c6UPubPyXJxCeCa7zKEfnvazEbjDCpD2YzxFSsElvJhcjiqnXvomtcb0ygAc6iTz7KgclH_3KWU5TZCZWbZoT9u79dU7zpM1rO0USdXOcm3bSN9XMsxwYvLAD5IJE8aw6lAj0hfLEd8EZz0F91uJ_0000?></g></svg>