<svg xmlns="http://www.w3.org/2000/svg" xmlns:xlink="http://www.w3.org/1999/xlink" contentStyleType="text/css" data-diagram-type="DESCRIPTION" height="1071px" preserveAspectRatio="none" style="width:855px;height:1071px;background:#FFFFFF;" version="1.1" viewBox="0 0 855 1071" width="855px" zoomAndPan="magnify"><?plantuml 1.2026.4beta2?><defs/><g><!--cluster Navegador--><g class="cluster" data-qualified-name="Navegador" data-source-line="3" id="ent0002"><path d="M8.5,116.5682 L95.2979,116.5682 A3.75,3.75 0 0 1 97.7979,119.0682 L104.7979,138.8651 L612.5,138.8651 A2.5,2.5 0 0 1 615,141.3651 L615,940.4382 A2.5,2.5 0 0 1 612.5,942.9382 L8.5,942.9382 A2.5,2.5 0 0 1 6,940.4382 L6,119.0682 A2.5,2.5 0 0 1 8.5,116.5682" fill="none" style="stroke:#000000;stroke-width:1.5;"/><line style="stroke:#000000;stroke-width:1.5;" x1="6" x2="104.7979" y1="138.8651" y2="138.8651"/><text fill="#000000" font-family="sans-serif" font-size="14" font-weight="700" lengthAdjust="spacing" textLength="85.7979" x="10" y="131.5633">Navegador</text></g><!--entity Html--><g class="entity" data-qualified-name="Navegador.Html" data-source-line="4" id="ent0003"><rect fill="#F1F1F1" height="36.2969" rx="2.5" ry="2.5" style="stroke:#181818;stroke-width:0.5;" width="94.8877" x="331.56" y="151.5682"/><text fill="#000000" font-family="sans-serif" font-size="14" lengthAdjust="spacing" textLength="74.8877" x="341.56" y="174.5633">index.html</text></g><!--entity Main--><g class="entity" data-qualified-name="Navegador.Main" data-source-line="5" id="ent0004"><rect fill="#F1F1F1" height="36.2969" rx="2.5" ry="2.5" style="stroke:#181818;stroke-width:0.5;" width="80.498" x="262.75" y="264.8682"/><text fill="#000000" font-family="sans-serif" font-size="14" lengthAdjust="spacing" textLength="60.498" x="272.75" y="287.8633">main.tsx</text></g><!--entity Scope--><g class="entity" data-qualified-name="Navegador.Scope" data-source-line="6" id="ent0005"><rect fill="#F1F1F1" height="36.2969" rx="2.5" ry="2.5" style="stroke:#181818;stroke-width:0.5;" width="194.9453" x="205.53" y="378.1582"/><text fill="#000000" font-family="sans-serif" font-size="14" lengthAdjust="spacing" textLength="174.9453" x="215.53" y="401.1533">.museu-tjsc-app wrapper</text></g><!--entity Boundary--><g class="entity" data-qualified-name="Navegador.Boundary" data-source-line="7" id="ent0006"><rect fill="#F1F1F1" height="36.2969" rx="2.5" ry="2.5" style="stroke:#181818;stroke-width:0.5;" width="122.1016" x="241.95" y="475.4582"/><text fill="#000000" font-family="sans-serif" font-size="14" lengthAdjust="spacing" textLength="102.1016" x="251.95" y="498.4533">ErrorBoundary</text></g><!--entity App--><g class="entity" data-qualified-name="Navegador.App" data-source-line="8" id="ent0007"><rect fill="#F1F1F1" height="36.2969" rx="2.5" ry="2.5" style="stroke:#181818;stroke-width:0.5;" width="72.8691" x="266.57" y="572.7582"/><text fill="#000000" font-family="sans-serif" font-size="14" lengthAdjust="spacing" textLength="52.8691" x="276.57" y="595.7533">App.tsx</text></g><!--entity Router--><g class="entity" data-qualified-name="Navegador.Router" data-source-line="9" id="ent0008"><rect fill="#F1F1F1" height="36.2969" rx="2.5" ry="2.5" style="stroke:#181818;stroke-width:0.5;" width="195.1025" x="22.45" y="670.0482"/><text fill="#000000" font-family="sans-serif" font-size="14" lengthAdjust="spacing" textLength="175.1025" x="32.45" y="693.0433">Wouter useHashLocation</text></g><!--entity Scroll--><g class="entity" data-qualified-name="Navegador.Scroll" data-source-line="10" id="ent0009"><rect fill="#F1F1F1" height="36.2969" rx="2.5" ry="2.5" style="stroke:#181818;stroke-width:0.5;" width="101.8057" x="252.1" y="670.0482"/><text fill="#000000" font-family="sans-serif" font-size="14" lengthAdjust="spacing" textLength="81.8057" x="262.1" y="693.0433">ScrollToTop</text></g><!--entity Layout--><g class="entity" data-qualified-name="Navegador.Layout" data-source-line="11" id="ent0010"><rect fill="#F1F1F1" height="36.2969" rx="2.5" ry="2.5" style="stroke:#181818;stroke-width:0.5;" width="67.5918" x="22.2" y="788.3482"/><text fill="#000000" font-family="sans-serif" font-size="14" lengthAdjust="spacing" textLength="47.5918" x="32.2" y="811.3433">Layout</text></g><!--entity PageIntro--><g class="entity" data-qualified-name="Navegador.PageIntro" data-source-line="12" id="ent0011"><rect fill="#F1F1F1" height="36.2969" rx="2.5" ry="2.5" style="stroke:#181818;stroke-width:0.5;" width="87.334" x="124.33" y="788.3482"/><text fill="#000000" font-family="sans-serif" font-size="14" lengthAdjust="spacing" textLength="67.334" x="134.33" y="811.3433">PageIntro</text></g><!--entity ExhibitionCard--><g class="entity" data-qualified-name="Navegador.ExhibitionCard" data-source-line="13" id="ent0012"><rect fill="#F1F1F1" height="36.2969" rx="2.5" ry="2.5" style="stroke:#181818;stroke-width:0.5;" width="122.4844" x="476.76" y="788.3482"/><text fill="#000000" font-family="sans-serif" font-size="14" lengthAdjust="spacing" textLength="102.4844" x="486.76" y="811.3433">ExhibitionCard</text></g><!--entity Dialog--><g class="entity" data-qualified-name="Navegador.Dialog" data-source-line="14" id="ent0013"><rect fill="#F1F1F1" height="36.2969" rx="2.5" ry="2.5" style="stroke:#181818;stroke-width:0.5;" width="178.7646" x="368.62" y="890.6482"/><text fill="#000000" font-family="sans-serif" font-size="14" lengthAdjust="spacing" textLength="158.7646" x="378.62" y="913.6433">ZoomableImageDialog</text></g><!--entity Pages--><g class="entity" data-qualified-name="Navegador.Pages" data-source-line="15" id="ent0014"><rect fill="#F1F1F1" height="36.2969" rx="2.5" ry="2.5" style="stroke:#181818;stroke-width:0.5;" width="107.7324" x="389.13" y="670.0482"/><text fill="#000000" font-family="sans-serif" font-size="14" lengthAdjust="spacing" textLength="87.7324" x="399.13" y="693.0433">P&#225;ginas (17)</text></g><!--entity Data--><g class="entity" data-qualified-name="Navegador.Data" data-source-line="16" id="ent0015"><rect fill="#F1F1F1" height="36.2969" rx="2.5" ry="2.5" style="stroke:#181818;stroke-width:0.5;" width="158.2568" x="246.87" y="788.3482"/><text fill="#000000" font-family="sans-serif" font-size="14" lengthAdjust="spacing" textLength="138.2568" x="256.87" y="811.3433">Dados Estruturados</text></g><!--entity AssetUrl--><g class="entity" data-qualified-name="Navegador.AssetUrl" data-source-line="17" id="ent0016"><rect fill="#F1F1F1" height="36.2969" rx="2.5" ry="2.5" style="stroke:#181818;stroke-width:0.5;" width="120.2832" x="212.86" y="890.6482"/><text fill="#000000" font-family="sans-serif" font-size="14" lengthAdjust="spacing" textLength="100.2832" x="222.86" y="913.6433">publicAssetUrl</text></g><!--entity Css--><g class="entity" data-qualified-name="Navegador.Css" data-source-line="18" id="ent0017"><rect fill="#F1F1F1" height="36.2969" rx="2.5" ry="2.5" style="stroke:#181818;stroke-width:0.5;" width="156.8213" x="378.59" y="264.8682"/><text fill="#000000" font-family="sans-serif" font-size="14" lengthAdjust="spacing" textLength="136.8213" x="388.59" y="287.8633">index.css escopado</text></g><!--entity Liferay--><g class="entity" data-qualified-name="Liferay" data-source-line="21" id="ent0018"><path d="M327.5277,16.0443 C330.3019,10.0211 335.344,8.898 339.5147,14.6189 C343.5018,7.4749 350.5481,8.6395 353.8405,15.3378 C357.2604,9.664 361.343,8.6434 366.0113,13.9545 C369.1947,6 376.3166,6.2638 380.9134,12.4667 C385.9682,7.4069 390.115,8.1754 393.3543,14.458 C398.0528,7.8335 402.4742,8.8693 406.8195,14.8357 C410.9194,9.4115 416.854,10.8471 419.3116,16.6613 C423.4903,9.4112 428.4161,9.1571 433.7701,15.4021 C443.6911,16.366 446.4062,23.571 440.2566,31.153 C446.6124,39.1068 442.5418,46.4936 433.1697,47.7192 C430.5828,55.3544 424.6641,55.2191 419.9324,49.9129 C417.3644,57.2548 411.3493,57.6245 407.1593,51.4451 C404.4312,58.5668 398.2365,59.4995 393.5093,53.5294 C390.741,60.6878 384.5682,61.7702 379.0535,56.8038 C373.6314,60.7433 369.1773,61.2271 366.8358,53.5607 C362.0326,60.8519 355.3889,58.7398 352.3965,51.7322 C347.8173,56.3563 343.3427,55.0673 340.9517,49.318 C336.5792,55.1187 330.1158,53.5061 327.6339,47.2327 C318.3241,46.3679 314.591,40.3561 318.5695,31.7244 C314.8888,22.5013 317.867,17.6454 327.5277,16.0443" fill="#F1F1F1" style="stroke:#181818;stroke-width:0.5;"/><text fill="#000000" font-family="sans-serif" font-size="14" lengthAdjust="spacing" textLength="93.0234" x="332.49" y="35.2633">Portal Liferay</text></g><!--entity Atom--><g class="entity" data-qualified-name="Atom" data-source-line="22" id="ent0019"><path d="M644.3159,792.9868 C647.1574,787.2315 650.9664,785.2075 656.239,790.3194 C659.1179,783.6188 663.6897,783.0957 668.0347,788.941 C671.704,783.0065 677.6352,783.3416 680.3118,789.9153 C685.9173,785.0858 690.6182,786.9787 693.3056,793.312 C700.2479,795.9642 701.3188,800.8519 696.9893,806.6234 C702.5581,814.0498 701.1889,819.7206 692.5361,823.3639 C689.3229,829.3564 684.4581,829.3602 681.0277,823.5761 C676.5656,828.9453 672.7875,828.3792 668.9678,822.8642 C664.6885,830.1588 660.5941,829.5168 655.5427,823.6519 C651.8941,829.0033 647.6148,828.6713 644.0551,823.5542 C635.6678,820.4102 634.2049,814.929 640.9972,808.667 C634.8821,802.7074 635.6244,795.8125 644.3159,792.9868" fill="#F1F1F1" style="stroke:#181818;stroke-width:0.5;"/><text fill="#000000" font-family="sans-serif" font-size="14" lengthAdjust="spacing" textLength="35.7109" x="649.14" y="811.3433">AtoM</text></g><!--entity Docs--><g class="entity" data-qualified-name="Docs" data-source-line="23" id="ent0020"><path d="M345.2628,1015.4019 C348.7209,1008.1109 354.7171,1007.3131 358.983,1014.644 C363.7921,1008.4375 368.6432,1006.9844 373.5894,1014.498 C378.3379,1008.2485 382.7706,1007.7654 388.1629,1013.7298 C391.6662,1006.6952 398.8782,1006.6875 402.9918,1013.0545 C407.6009,1006.8275 412.8072,1007.2437 416.6788,1013.8416 C420.6984,1006.5605 427.6064,1005.6772 432.3631,1013.0527 C435.9994,1005.7228 440.7839,1005.0767 445.8333,1011.6873 C450.3121,1006.0494 456.3459,1006.8452 459.796,1012.9143 C465.4899,1006.7471 470.4229,1005.9681 475.4752,1013.6412 C479.5415,1007.7696 483.8512,1005.6906 488.8528,1012.6675 C493.6955,1007.2691 500.0691,1006.572 503.274,1014.447 C507.7912,1007.0311 513.3126,1006.5492 518.9905,1013.145 C523.9709,1007.0882 529.5345,1006.1866 534.0283,1013.6848 C539.0098,1007.4751 544.6155,1008.2237 547.7716,1015.5395 C557.1471,1016.2433 561.065,1022.0892 557.4518,1030.9513 C562.0143,1039.6924 557.766,1044.9345 548.6039,1045.0821 C544.238,1053.329 538.9761,1052.4955 533.4054,1046.3548 C528.6154,1054.557 523.313,1054.1322 517.5597,1047.3751 C513.5733,1054.0466 508.1248,1053.1996 504.6257,1046.8895 C499.1497,1053.7881 493.8135,1052.8257 489.1357,1045.9894 C484.9754,1051.7507 479.9699,1053.2301 475.4743,1046.3519 C472.1929,1054.7655 465.7262,1055.5443 460.6849,1047.981 C457.3253,1054.7934 451.1059,1054.3128 447.25,1048.5095 C443.6683,1056.3221 436.8431,1056.5245 432.3352,1049.4366 C425.3789,1056.0758 420.3436,1054.6895 416.2206,1046.3819 C413.4869,1053.3561 408.5952,1052.9985 404.0009,1048.3357 C398.6214,1054.9638 394.2818,1053.8711 389.4993,1047.6614 C383.8678,1054.632 377.5442,1054.3777 372.9159,1046.5382 C369.1319,1053.84 362.3718,1053.3022 358.6719,1046.4536 C353.8085,1053.0412 348.6837,1052.8889 344.9767,1045.3338 C337.7198,1041.5344 336.8166,1036.6847 343.2248,1031.1924 C335.7163,1025.5219 336.538,1018.9773 345.2628,1015.4019" fill="#F1F1F1" style="stroke:#181818;stroke-width:0.5;"/><text fill="#000000" font-family="sans-serif" font-size="14" lengthAdjust="spacing" textLength="188.9111" x="350.54" y="1033.9333">Documentos/Imagens TJSC</text></g><!--entity YT--><g class="entity" data-qualified-name="YT" data-source-line="24" id="ent0021"><path d="M752.2688,792.5207 C756.3404,786.6098 760.6514,785.6947 765.0791,792.152 C768.5809,785.1524 772.6609,784.9532 777.6539,790.6783 C779.9958,784.6072 786.4448,784.0636 790.4503,788.688 C793.5863,784.2972 799.0657,784.3112 801.4976,789.4999 C806.7424,785.0337 811.5142,785.3073 814.4719,792.1288 C819.0178,785.3977 823.8065,784.8683 828.0623,792.4051 C836.3434,793.5068 840.0429,800.0785 833.622,806.842 C839.3315,814.3884 834.9782,820.8099 826.6025,821.7034 C825.3373,828.4491 820.4483,829.5609 815.8191,824.8775 C813.0998,832.7304 806.7667,832.6665 801.9869,826.983 C799.3652,833.6652 794.4973,834.4058 789.787,829.1105 C785.2346,834.2525 780.6609,835.1559 777.2705,827.9342 C771.5037,832.7032 766.7511,831.6069 765.1091,823.9101 C761.5776,829.2496 756.9413,829.9685 753.5566,823.7632 C744.4335,822.9495 740.5791,815.0929 745.3607,807.3401 C740.791,799.4418 742.6373,793.7991 752.2688,792.5207" fill="#F1F1F1" style="stroke:#181818;stroke-width:0.5;"/><text fill="#000000" font-family="sans-serif" font-size="14" lengthAdjust="spacing" textLength="60.915" x="758.54" y="811.3433">YouTube</text></g><!--link Liferay to Html--><g class="link" data-entity-1="ent0018" data-entity-2="ent0003" data-link-type="dependency" data-source-line="26" id="lnk22"><path d="M379,53.7782 C379,80.9882 379,120.3382 379,145.1582" fill="none" id="Liferay-to-Html" style="stroke:#181818;stroke-width:1;"/><polygon fill="#181818" points="379,151.1582,383,142.1582,379,146.1582,375,142.1582,379,151.1582" style="stroke:#181818;stroke-width:1;"/><text fill="#000000" font-family="sans-serif" font-size="13" lengthAdjust="spacing" textLength="122.0781" x="380" y="96.6351">incorpora ou serve</text></g><!--link Html to Main--><g class="link" data-entity-1="ent0003" data-entity-2="ent0004" data-link-type="dependency" data-source-line="27" id="lnk23"><path d="M359.61,188.3582 C351.08,196.7482 341.35,207.2582 334,217.8682 C323.78,232.6082 317.4783,245.6817 311.9583,259.0617" fill="none" id="Html-to-Main" style="stroke:#181818;stroke-width:1;"/><polygon fill="#181818" points="309.67,264.6082,316.8001,257.8139,311.5769,259.9861,309.4047,254.7629,309.67,264.6082" style="stroke:#181818;stroke-width:1;"/><text fill="#000000" font-family="sans-serif" font-size="13" lengthAdjust="spacing" textLength="66.2378" x="335" y="230.9351">carrega JS</text></g><!--link Html to Css--><g class="link" data-entity-1="ent0003" data-entity-2="ent0017" data-link-type="dependency" data-source-line="28" id="lnk24"><path d="M391.19,188.1082 C405.76,208.8882 426.5576,238.5639 441.1976,259.4639" fill="none" id="Html-to-Css" style="stroke:#181818;stroke-width:1;"/><polygon fill="#181818" points="444.64,264.3782,442.7527,254.7119,441.7714,260.283,436.2003,259.3017,444.64,264.3782" style="stroke:#181818;stroke-width:1;"/><text fill="#000000" font-family="sans-serif" font-size="13" lengthAdjust="spacing" textLength="133.1421" x="423" y="230.9351">carrega CSS relativo</text></g><!--link Main to Scope--><g class="link" data-entity-1="ent0004" data-entity-2="ent0005" data-link-type="dependency" data-source-line="29" id="lnk25"><path d="M303,301.3982 C303,322.1882 303,350.7782 303,371.6782" fill="none" id="Main-to-Scope" style="stroke:#181818;stroke-width:1;"/><polygon fill="#181818" points="303,377.6782,307,368.6782,303,372.6782,299,368.6782,303,377.6782" style="stroke:#181818;stroke-width:1;"/><text fill="#000000" font-family="sans-serif" font-size="13" lengthAdjust="spacing" textLength="173.1196" x="304" y="344.2251">monta em museu-tjsc-root</text></g><!--link Scope to Boundary--><g class="link" data-entity-1="ent0005" data-entity-2="ent0006" data-link-type="dependency" data-source-line="30" id="lnk26"><path d="M303,414.7882 C303,431.9782 303,452.0782 303,469.2382" fill="none" id="Scope-to-Boundary" style="stroke:#181818;stroke-width:1;"/><polygon fill="#181818" points="303,475.2382,307,466.2382,303,470.2382,299,466.2382,303,475.2382" style="stroke:#181818;stroke-width:1;"/></g><!--link Boundary to App--><g class="link" data-entity-1="ent0006" data-entity-2="ent0007" data-link-type="dependency" data-source-line="31" id="lnk27"><path d="M303,512.0882 C303,529.2782 303,549.3782 303,566.5382" fill="none" id="Boundary-to-App" style="stroke:#181818;stroke-width:1;"/><polygon fill="#181818" points="303,572.5382,307,563.5382,303,567.5382,299,563.5382,303,572.5382" style="stroke:#181818;stroke-width:1;"/></g><!--link App to Router--><g class="link" data-entity-1="ent0007" data-entity-2="ent0008" data-link-type="dependency" data-source-line="32" id="lnk28"><path d="M269.43,609.3782 C236.52,626.5182 191.9316,649.7368 158.9816,666.8968" fill="none" id="App-to-Router" style="stroke:#181818;stroke-width:1;"/><polygon fill="#181818" points="153.66,669.6682,163.49,669.0588,158.0947,667.3587,159.7948,661.9634,153.66,669.6682" style="stroke:#181818;stroke-width:1;"/></g><!--link App to Scroll--><g class="link" data-entity-1="ent0007" data-entity-2="ent0009" data-link-type="dependency" data-source-line="33" id="lnk29"><path d="M303,609.3782 C303,626.5782 303,646.6782 303,663.8282" fill="none" id="App-to-Scroll" style="stroke:#181818;stroke-width:1;"/><polygon fill="#181818" points="303,669.8282,307,660.8282,303,664.8282,299,660.8282,303,669.8282" style="stroke:#181818;stroke-width:1;"/></g><!--link App to Pages--><g class="link" data-entity-1="ent0007" data-entity-2="ent0014" data-link-type="dependency" data-source-line="34" id="lnk30"><path d="M328.68,609.3782 C353.94,626.5782 387.3197,649.3025 412.5197,666.4525" fill="none" id="App-to-Pages" style="stroke:#181818;stroke-width:1;"/><polygon fill="#181818" points="417.48,669.8282,412.2901,661.4577,413.3464,667.0151,407.7891,668.0714,417.48,669.8282" style="stroke:#181818;stroke-width:1;"/></g><!--link Pages to Layout--><g class="link" data-entity-1="ent0014" data-entity-2="ent0010" data-link-type="dependency" data-source-line="35" id="lnk31"><path d="M388.76,701.9682 C321.74,718.3082 204.61,748.6582 107,783.3482 C101.45,785.3182 101.1876,785.2984 95.5776,787.6384" fill="none" id="Pages-to-Layout" style="stroke:#181818;stroke-width:1;"/><polygon fill="#181818" points="90.04,789.9482,99.8862,790.1752,94.6547,788.0234,96.8065,782.7918,90.04,789.9482" style="stroke:#181818;stroke-width:1;"/></g><!--link Pages to PageIntro--><g class="link" data-entity-1="ent0014" data-entity-2="ent0011" data-link-type="dependency" data-source-line="36" id="lnk32"><path d="M401.53,706.7382 C349.62,728.6882 266.7462,763.7413 214.8862,785.6713" fill="none" id="Pages-to-PageIntro" style="stroke:#181818;stroke-width:1;"/><polygon fill="#181818" points="209.36,788.0082,219.2072,788.1871,213.9652,786.0608,216.0914,780.8188,209.36,788.0082" style="stroke:#181818;stroke-width:1;"/></g><!--link Pages to ExhibitionCard--><g class="link" data-entity-1="ent0014" data-entity-2="ent0012" data-link-type="dependency" data-source-line="37" id="lnk33"><path d="M457.22,706.6082 C475.13,728.5382 501.9348,761.341 519.8848,783.321" fill="none" id="Pages-to-ExhibitionCard" style="stroke:#181818;stroke-width:1;"/><polygon fill="#181818" points="523.68,787.9682,521.0854,778.4673,520.5174,784.0955,514.8891,783.5275,523.68,787.9682" style="stroke:#181818;stroke-width:1;"/></g><!--link Pages to Dialog--><g class="link" data-entity-1="ent0014" data-entity-2="ent0013" data-link-type="dependency" data-source-line="38" id="lnk34"><path d="M444.2,706.7182 C447.01,747.6482 453.5698,843.1922 456.3798,884.2022" fill="none" id="Pages-to-Dialog" style="stroke:#181818;stroke-width:1;"/><polygon fill="#181818" points="456.79,890.1882,460.1654,880.9358,456.4482,885.1999,452.1841,881.4827,456.79,890.1882" style="stroke:#181818;stroke-width:1;"/></g><!--link Pages to Data--><g class="link" data-entity-1="ent0014" data-entity-2="ent0015" data-link-type="dependency" data-source-line="39" id="lnk35"><path d="M425.48,706.6082 C403.43,728.5382 370.0051,761.7581 347.8951,783.7381" fill="none" id="Pages-to-Data" style="stroke:#181818;stroke-width:1;"/><polygon fill="#181818" points="343.64,787.9682,352.8428,784.4598,347.1859,784.4431,347.2026,778.7863,343.64,787.9682" style="stroke:#181818;stroke-width:1;"/></g><!--link ExhibitionCard to Dialog--><g class="link" data-entity-1="ent0012" data-entity-2="ent0013" data-link-type="dependency" data-source-line="40" id="lnk36"><path d="M524.07,824.9682 C509.47,843.2582 490.4219,867.148 475.7819,885.498" fill="none" id="ExhibitionCard-to-Dialog" style="stroke:#181818;stroke-width:1;"/><polygon fill="#181818" points="472.04,890.1882,480.7797,885.6475,475.1583,886.2797,474.5261,880.6583,472.04,890.1882" style="stroke:#181818;stroke-width:1;"/></g><!--link Data to AssetUrl--><g class="link" data-entity-1="ent0015" data-entity-2="ent0016" data-link-type="dependency" data-source-line="41" id="lnk37"><path d="M316.77,824.9682 C307.1,843.2582 294.804,866.5337 285.104,884.8837" fill="none" id="Data-to-AssetUrl" style="stroke:#181818;stroke-width:1;"/><polygon fill="#181818" points="282.3,890.1882,290.0423,884.1008,284.6367,885.7678,282.9697,880.3621,282.3,890.1882" style="stroke:#181818;stroke-width:1;"/></g><!--link AssetUrl to Docs--><g class="link" data-entity-1="ent0016" data-entity-2="ent0020" data-link-type="dependency" data-source-line="42" id="lnk38"><path d="M298.38,927.2482 C328.56,948.0082 374.0767,979.3077 407.2067,1002.0977" fill="none" id="AssetUrl-to-Docs" style="stroke:#181818;stroke-width:1;"/><polygon fill="#181818" points="412.15,1005.4982,407.002,997.1019,408.0306,1002.6645,402.468,1003.693,412.15,1005.4982" style="stroke:#181818;stroke-width:1;"/><text fill="#000000" font-family="sans-serif" font-size="13" lengthAdjust="spacing" textLength="144.3267" x="365" y="972.0051">base externa opcional</text></g><!--link ExhibitionCard to Docs--><g class="link" data-entity-1="ent0012" data-entity-2="ent0020" data-link-type="dependency" data-source-line="43" id="lnk39"><path d="M548.26,824.9782 C563.36,853.2082 587.46,909.7882 565,950.9382 C551.65,975.3982 532.177,990.478 508.577,1002.818" fill="none" id="ExhibitionCard-to-Docs" style="stroke:#181818;stroke-width:1;"/><polygon fill="#181818" points="503.26,1005.5982,513.089,1004.9726,507.6908,1003.2814,509.3821,997.8833,503.26,1005.5982" style="stroke:#181818;stroke-width:1;"/><text fill="#000000" font-family="sans-serif" font-size="13" lengthAdjust="spacing" textLength="113.4326" x="575" y="913.3551">imagens remotas</text></g><!--link Pages to Atom--><g class="link" data-entity-1="ent0014" data-entity-2="ent0019" data-link-type="dependency" data-source-line="44" id="lnk40"><path d="M476.54,706.6082 C519.01,728.6582 586.4049,763.6535 628.6449,785.5835" fill="none" id="Pages-to-Atom" style="stroke:#181818;stroke-width:1;"/><polygon fill="#181818" points="633.97,788.3482,627.8255,780.6512,629.5324,786.0443,624.1392,787.7513,633.97,788.3482" style="stroke:#181818;stroke-width:1;"/><text fill="#000000" font-family="sans-serif" font-size="13" lengthAdjust="spacing" textLength="90.9937" x="562" y="749.4151">links externos</text></g><!--link Pages to YT--><g class="link" data-entity-1="ent0014" data-entity-2="ent0021" data-link-type="dependency" data-source-line="45" id="lnk41"><path d="M497.05,696.5382 C541.91,703.6482 606.88,716.3382 661,736.3482 C693.93,748.5182 723.7067,764.7519 748.7267,779.8919" fill="none" id="Pages-to-YT" style="stroke:#181818;stroke-width:1;"/><polygon fill="#181818" points="753.86,782.9982,748.2308,774.9166,749.5822,780.4097,744.0892,781.761,753.86,782.9982" style="stroke:#181818;stroke-width:1;"/><text fill="#000000" font-family="sans-serif" font-size="13" lengthAdjust="spacing" textLength="42.2817" x="698" y="749.4151">v&#237;deos</text></g><?plantuml-src RPFFZjCm4CRlUGgh9pYqY1CI1wJIhhIxwY94Wb2vJHtJcZeUQsoNLeY7uG5uYdqn9axInDKUMitCz_FuptpnHsqT43H2OkFGAXlAS35Aa981xDweed0WZx1NOlO9JceFDT9C_2x4k4BCjAtLUN48ZPa9yEAUWnneGDj5yESaFt6IouicUXNduQUNSt1E_2B-LvJeKg9JENv7XFGHews1BWaQafnREdVTbEDS_8OnA1AyyJtummOb18qsiL-IbEEb93IcmWfTVwmspvaDN7Xbahimbp_pApxOG9Y8QtPpj_D1xtHxb1LGdSYybEFV4HlO6VNGSBkr1eFxjAOBR_P__hlNbiLNRz-zlfx1vz2Q1ynR-a0nH6gJhXy4o44NTqRBfVSgVALkxaFoaZcazq9vdYMtJF3A--9FKKY3iUQp8GKmOgD_A89kfdqy4Ck0Jzqk0PkXk4OP6zu5_Plq0jQBwh5STKT6wGTkYx6AEvNgswee-jvYFl-Gt2hU2sqbaaC2WL5uHITL9AL5MiSo8e68lm3nM8uINsEYhCgIFnt3LZfXaLQrJB8mKmtQ048rOc9tGWn51xJerSX3aAgjUVcNujwSGzhxS4YxYQR_bFS-70kZxSRQZS56eNVHfD3Q8CUdO2jt1nwSC0GTnHFXPzY1LqAT-HQM7zj9RWJcnQuTh_l9acemmFHshHKOCDeUVTyHf_gsOlNq_AzMwFy3?></g></svg>