<svg xmlns="http://www.w3.org/2000/svg" xmlns:xlink="http://www.w3.org/1999/xlink" contentStyleType="text/css" data-diagram-type="CLASS" height="561px" preserveAspectRatio="none" style="width:1205px;height:561px;background:#FFFFFF;" version="1.1" viewBox="0 0 1205 561" width="1205px" zoomAndPan="magnify"><?plantuml 1.2026.4beta2?><defs/><g><!--class Source--><g class="entity" data-qualified-name="Source" data-source-line="1" id="ent0002"><rect fill="#F1F1F1" height="96.8906" rx="2.5" ry="2.5" style="stroke:#181818;stroke-width:0.5;" width="143.2842" x="7" y="408.46"/><ellipse cx="50.3017" cy="424.46" fill="#ADD1B2" rx="11" ry="11" style="stroke:#181818;stroke-width:1;"/><path d="M53.2704,430.1006 Q52.6923,430.3975 52.0517,430.5381 Q51.411,430.6944 50.7079,430.6944 Q48.2079,430.6944 46.8798,429.0538 Q45.5673,427.3975 45.5673,424.2725 Q45.5673,421.1475 46.8798,419.4913 Q48.2079,417.835 50.7079,417.835 Q51.411,417.835 52.0517,417.9913 Q52.7079,418.1475 53.2704,418.4444 L53.2704,421.1631 Q52.6454,420.585 52.0517,420.3194 Q51.4579,420.0381 50.8329,420.0381 Q49.4892,420.0381 48.8017,421.1163 Q48.1142,422.1788 48.1142,424.2725 Q48.1142,426.3663 48.8017,427.4444 Q49.4892,428.5069 50.8329,428.5069 Q51.4579,428.5069 52.0517,428.2413 Q52.6454,427.96 53.2704,427.3819 L53.2704,430.1006 Z " fill="#000000"/><text fill="#000000" font-family="sans-serif" font-size="14" lengthAdjust="spacing" textLength="48.3916" x="70.5909" y="429.3067">Source</text><line style="stroke:#181818;stroke-width:0.5;" x1="8" x2="149.2842" y1="440.46" y2="440.46"/><g data-visibility-modifier="PUBLIC_FIELD"><ellipse cx="18" cy="454.1084" fill="none" rx="3" ry="3" style="stroke:#038048;stroke-width:1;"/></g><text fill="#000000" font-family="sans-serif" font-size="14" lengthAdjust="spacing" textLength="83.2139" x="27" y="457.4551">label: string</text><g data-visibility-modifier="PUBLIC_FIELD"><ellipse cx="18" cy="470.4053" fill="none" rx="3" ry="3" style="stroke:#038048;stroke-width:1;"/></g><text fill="#000000" font-family="sans-serif" font-size="14" lengthAdjust="spacing" textLength="67.874" x="27" y="473.752">url: string</text><g data-visibility-modifier="PUBLIC_FIELD"><ellipse cx="18" cy="486.7022" fill="none" rx="3" ry="3" style="stroke:#038048;stroke-width:1;"/></g><text fill="#000000" font-family="sans-serif" font-size="14" lengthAdjust="spacing" textLength="117.2842" x="27" y="490.0489">verifiedAt: string</text><line style="stroke:#181818;stroke-width:0.5;" x1="8" x2="149.2842" y1="497.3506" y2="497.3506"/></g><!--class Exhibition--><g class="entity" data-qualified-name="Exhibition" data-source-line="7" id="ent0003"><rect fill="#F1F1F1" height="145.7813" rx="2.5" ry="2.5" style="stroke:#181818;stroke-width:0.5;" width="142.0469" x="185.62" y="384.01"/><ellipse cx="218.8718" cy="400.01" fill="#ADD1B2" rx="11" ry="11" style="stroke:#181818;stroke-width:1;"/><path d="M221.8406,405.6506 Q221.2624,405.9475 220.6218,406.0881 Q219.9812,406.2444 219.2781,406.2444 Q216.7781,406.2444 215.4499,404.6038 Q214.1374,402.9475 214.1374,399.8225 Q214.1374,396.6975 215.4499,395.0413 Q216.7781,393.385 219.2781,393.385 Q219.9812,393.385 220.6218,393.5413 Q221.2781,393.6975 221.8406,393.9944 L221.8406,396.7131 Q221.2156,396.135 220.6218,395.8694 Q220.0281,395.5881 219.4031,395.5881 Q218.0593,395.5881 217.3718,396.6663 Q216.6843,397.7288 216.6843,399.8225 Q216.6843,401.9163 217.3718,402.9944 Q218.0593,404.0569 219.4031,404.0569 Q220.0281,404.0569 220.6218,403.7913 Q221.2156,403.51 221.8406,402.9319 L221.8406,405.6506 Z " fill="#000000"/><text fill="#000000" font-family="sans-serif" font-size="14" lengthAdjust="spacing" textLength="69.4873" x="236.9278" y="404.8567">Exhibition</text><line style="stroke:#181818;stroke-width:0.5;" x1="186.62" x2="326.6669" y1="416.01" y2="416.01"/><g data-visibility-modifier="PUBLIC_FIELD"><ellipse cx="196.62" cy="429.6584" fill="none" rx="3" ry="3" style="stroke:#038048;stroke-width:1;"/></g><text fill="#000000" font-family="sans-serif" font-size="14" lengthAdjust="spacing" textLength="80.5889" x="205.62" y="433.0051">year: string</text><g data-visibility-modifier="PUBLIC_FIELD"><ellipse cx="196.62" cy="445.9553" fill="none" rx="3" ry="3" style="stroke:#038048;stroke-width:1;"/></g><text fill="#000000" font-family="sans-serif" font-size="14" lengthAdjust="spacing" textLength="76.7266" x="205.62" y="449.302">title: string</text><g data-visibility-modifier="PUBLIC_FIELD"><ellipse cx="196.62" cy="462.2522" fill="none" rx="3" ry="3" style="stroke:#038048;stroke-width:1;"/></g><text fill="#000000" font-family="sans-serif" font-size="14" lengthAdjust="spacing" textLength="67.874" x="205.62" y="465.5989">url: string</text><g data-visibility-modifier="PUBLIC_FIELD"><ellipse cx="196.62" cy="478.5491" fill="none" rx="3" ry="3" style="stroke:#038048;stroke-width:1;"/></g><text fill="#000000" font-family="sans-serif" font-size="14" lengthAdjust="spacing" textLength="112.8545" x="205.62" y="481.8957">imageUrl: string</text><g data-visibility-modifier="PUBLIC_FIELD"><ellipse cx="196.62" cy="494.8459" fill="none" rx="3" ry="3" style="stroke:#038048;stroke-width:1;"/></g><text fill="#000000" font-family="sans-serif" font-size="14" lengthAdjust="spacing" textLength="111.918" x="205.62" y="498.1926">imageAlt: string</text><g data-visibility-modifier="PUBLIC_FIELD"><ellipse cx="196.62" cy="511.1428" fill="none" rx="3" ry="3" style="stroke:#038048;stroke-width:1;"/></g><text fill="#000000" font-family="sans-serif" font-size="14" lengthAdjust="spacing" textLength="116.0469" x="205.62" y="514.4895">sourceUrl: string</text><line style="stroke:#181818;stroke-width:0.5;" x1="186.62" x2="326.6669" y1="521.7913" y2="521.7913"/></g><!--class Publication--><g class="entity" data-qualified-name="Publication" data-source-line="16" id="ent0004"><rect fill="#F1F1F1" height="178.375" rx="2.5" ry="2.5" style="stroke:#181818;stroke-width:0.5;" width="153.1963" x="363.04" y="367.71"/><ellipse cx="397.8945" cy="383.71" fill="#ADD1B2" rx="11" ry="11" style="stroke:#181818;stroke-width:1;"/><path d="M400.8632,389.3506 Q400.2851,389.6475 399.6445,389.7881 Q399.0039,389.9444 398.3007,389.9444 Q395.8007,389.9444 394.4726,388.3038 Q393.1601,386.6475 393.1601,383.5225 Q393.1601,380.3975 394.4726,378.7413 Q395.8007,377.085 398.3007,377.085 Q399.0039,377.085 399.6445,377.2413 Q400.3007,377.3975 400.8632,377.6944 L400.8632,380.4131 Q400.2382,379.835 399.6445,379.5694 Q399.0507,379.2881 398.4257,379.2881 Q397.082,379.2881 396.3945,380.3663 Q395.707,381.4288 395.707,383.5225 Q395.707,385.6163 396.3945,386.6944 Q397.082,387.7569 398.4257,387.7569 Q399.0507,387.7569 399.6445,387.4913 Q400.2382,387.21 400.8632,386.6319 L400.8632,389.3506 Z " fill="#000000"/><text fill="#000000" font-family="sans-serif" font-size="14" lengthAdjust="spacing" textLength="77.0752" x="416.3066" y="388.5567">Publication</text><line style="stroke:#181818;stroke-width:0.5;" x1="364.04" x2="515.2363" y1="399.71" y2="399.71"/><g data-visibility-modifier="PUBLIC_FIELD"><ellipse cx="374.04" cy="413.3584" fill="none" rx="3" ry="3" style="stroke:#038048;stroke-width:1;"/></g><text fill="#000000" font-family="sans-serif" font-size="14" lengthAdjust="spacing" textLength="76.7266" x="383.04" y="416.7051">title: string</text><g data-visibility-modifier="PUBLIC_FIELD"><ellipse cx="374.04" cy="429.6553" fill="none" rx="3" ry="3" style="stroke:#038048;stroke-width:1;"/></g><text fill="#000000" font-family="sans-serif" font-size="14" lengthAdjust="spacing" textLength="101.7803" x="383.04" y="433.002">subtitle: string</text><g data-visibility-modifier="PUBLIC_FIELD"><ellipse cx="374.04" cy="445.9522" fill="none" rx="3" ry="3" style="stroke:#038048;stroke-width:1;"/></g><text fill="#000000" font-family="sans-serif" font-size="14" lengthAdjust="spacing" textLength="80.5889" x="383.04" y="449.2989">year: string</text><g data-visibility-modifier="PUBLIC_FIELD"><ellipse cx="374.04" cy="462.2491" fill="none" rx="3" ry="3" style="stroke:#038048;stroke-width:1;"/></g><text fill="#000000" font-family="sans-serif" font-size="14" lengthAdjust="spacing" textLength="127.1963" x="383.04" y="465.5957">description: string</text><g data-visibility-modifier="PUBLIC_FIELD"><ellipse cx="374.04" cy="478.5459" fill="none" rx="3" ry="3" style="stroke:#038048;stroke-width:1;"/></g><text fill="#000000" font-family="sans-serif" font-size="14" lengthAdjust="spacing" textLength="67.874" x="383.04" y="481.8926">url: string</text><g data-visibility-modifier="PUBLIC_FIELD"><ellipse cx="374.04" cy="494.8428" fill="none" rx="3" ry="3" style="stroke:#038048;stroke-width:1;"/></g><text fill="#000000" font-family="sans-serif" font-size="14" lengthAdjust="spacing" textLength="120.2852" x="383.04" y="498.1895">imageUrl?: string</text><g data-visibility-modifier="PUBLIC_FIELD"><ellipse cx="374.04" cy="511.1397" fill="none" rx="3" ry="3" style="stroke:#038048;stroke-width:1;"/></g><text fill="#000000" font-family="sans-serif" font-size="14" lengthAdjust="spacing" textLength="119.3486" x="383.04" y="514.4864">imageAlt?: string</text><g data-visibility-modifier="PUBLIC_FIELD"><ellipse cx="374.04" cy="527.4366" fill="none" rx="3" ry="3" style="stroke:#038048;stroke-width:1;"/></g><text fill="#000000" font-family="sans-serif" font-size="14" lengthAdjust="spacing" textLength="116.0469" x="383.04" y="530.7832">sourceUrl: string</text><line style="stroke:#181818;stroke-width:0.5;" x1="364.04" x2="515.2363" y1="538.085" y2="538.085"/></g><!--class TimelineEvent--><g class="entity" data-qualified-name="TimelineEvent" data-source-line="27" id="ent0005"><rect fill="#F1F1F1" height="96.8906" rx="2.5" ry="2.5" style="stroke:#181818;stroke-width:0.5;" width="153.1963" x="551.04" y="408.46"/><ellipse cx="575.5493" cy="424.46" fill="#ADD1B2" rx="11" ry="11" style="stroke:#181818;stroke-width:1;"/><path d="M578.5181,430.1006 Q577.94,430.3975 577.2993,430.5381 Q576.6587,430.6944 575.9556,430.6944 Q573.4556,430.6944 572.1275,429.0538 Q570.815,427.3975 570.815,424.2725 Q570.815,421.1475 572.1275,419.4913 Q573.4556,417.835 575.9556,417.835 Q576.6587,417.835 577.2993,417.9913 Q577.9556,418.1475 578.5181,418.4444 L578.5181,421.1631 Q577.8931,420.585 577.2993,420.3194 Q576.7056,420.0381 576.0806,420.0381 Q574.7368,420.0381 574.0493,421.1163 Q573.3618,422.1788 573.3618,424.2725 Q573.3618,426.3663 574.0493,427.4444 Q574.7368,428.5069 576.0806,428.5069 Q576.7056,428.5069 577.2993,428.2413 Q577.8931,427.96 578.5181,427.3819 L578.5181,430.1006 Z " fill="#000000"/><text fill="#000000" font-family="sans-serif" font-size="14" lengthAdjust="spacing" textLength="100.0645" x="591.6625" y="429.3067">TimelineEvent</text><line style="stroke:#181818;stroke-width:0.5;" x1="552.04" x2="703.2363" y1="440.46" y2="440.46"/><g data-visibility-modifier="PUBLIC_FIELD"><ellipse cx="562.04" cy="454.1084" fill="none" rx="3" ry="3" style="stroke:#038048;stroke-width:1;"/></g><text fill="#000000" font-family="sans-serif" font-size="14" lengthAdjust="spacing" textLength="80.5889" x="571.04" y="457.4551">year: string</text><g data-visibility-modifier="PUBLIC_FIELD"><ellipse cx="562.04" cy="470.4053" fill="none" rx="3" ry="3" style="stroke:#038048;stroke-width:1;"/></g><text fill="#000000" font-family="sans-serif" font-size="14" lengthAdjust="spacing" textLength="76.7266" x="571.04" y="473.752">title: string</text><g data-visibility-modifier="PUBLIC_FIELD"><ellipse cx="562.04" cy="486.7022" fill="none" rx="3" ry="3" style="stroke:#038048;stroke-width:1;"/></g><text fill="#000000" font-family="sans-serif" font-size="14" lengthAdjust="spacing" textLength="127.1963" x="571.04" y="490.0489">description: string</text><line style="stroke:#181818;stroke-width:0.5;" x1="552.04" x2="703.2363" y1="497.3506" y2="497.3506"/></g><!--class OralHistoryInterview--><g class="entity" data-qualified-name="OralHistoryInterview" data-source-line="33" id="ent0006"><rect fill="#F1F1F1" height="113.1875" rx="2.5" ry="2.5" style="stroke:#181818;stroke-width:0.5;" width="176.1494" x="739.57" y="400.31"/><ellipse cx="754.57" cy="416.31" fill="#ADD1B2" rx="11" ry="11" style="stroke:#181818;stroke-width:1;"/><path d="M757.5388,421.9506 Q756.9606,422.2475 756.32,422.3881 Q755.6794,422.5444 754.9763,422.5444 Q752.4763,422.5444 751.1481,420.9038 Q749.8356,419.2475 749.8356,416.1225 Q749.8356,412.9975 751.1481,411.3413 Q752.4763,409.685 754.9763,409.685 Q755.6794,409.685 756.32,409.8413 Q756.9763,409.9975 757.5388,410.2944 L757.5388,413.0131 Q756.9138,412.435 756.32,412.1694 Q755.7263,411.8881 755.1013,411.8881 Q753.7575,411.8881 753.07,412.9663 Q752.3825,414.0288 752.3825,416.1225 Q752.3825,418.2163 753.07,419.2944 Q753.7575,420.3569 755.1013,420.3569 Q755.7263,420.3569 756.32,420.0913 Q756.9138,419.81 757.5388,419.2319 L757.5388,421.9506 Z " fill="#000000"/><text fill="#000000" font-family="sans-serif" font-size="14" lengthAdjust="spacing" textLength="144.1494" x="768.57" y="421.1567">OralHistoryInterview</text><line style="stroke:#181818;stroke-width:0.5;" x1="740.57" x2="914.7194" y1="432.31" y2="432.31"/><g data-visibility-modifier="PUBLIC_FIELD"><ellipse cx="750.57" cy="445.9584" fill="none" rx="3" ry="3" style="stroke:#038048;stroke-width:1;"/></g><text fill="#000000" font-family="sans-serif" font-size="14" lengthAdjust="spacing" textLength="89.0586" x="759.57" y="449.3051">name: string</text><g data-visibility-modifier="PUBLIC_FIELD"><ellipse cx="750.57" cy="462.2553" fill="none" rx="3" ry="3" style="stroke:#038048;stroke-width:1;"/></g><text fill="#000000" font-family="sans-serif" font-size="14" lengthAdjust="spacing" textLength="67.874" x="759.57" y="465.602">url: string</text><g data-visibility-modifier="PUBLIC_FIELD"><ellipse cx="750.57" cy="478.5522" fill="none" rx="3" ry="3" style="stroke:#038048;stroke-width:1;"/></g><text fill="#000000" font-family="sans-serif" font-size="14" lengthAdjust="spacing" textLength="112.8545" x="759.57" y="481.8989">imageUrl: string</text><g data-visibility-modifier="PUBLIC_FIELD"><ellipse cx="750.57" cy="494.8491" fill="none" rx="3" ry="3" style="stroke:#038048;stroke-width:1;"/></g><text fill="#000000" font-family="sans-serif" font-size="14" lengthAdjust="spacing" textLength="111.918" x="759.57" y="498.1957">imageAlt: string</text><line style="stroke:#181818;stroke-width:0.5;" x1="740.57" x2="914.7194" y1="505.4975" y2="505.4975"/></g><!--class CompositionTerm--><g class="entity" data-qualified-name="CompositionTerm" data-source-line="40" id="ent0007"><rect fill="#F1F1F1" height="178.375" rx="2.5" ry="2.5" style="stroke:#181818;stroke-width:0.5;" width="179.5215" x="950.88" y="367.71"/><ellipse cx="976.4691" cy="383.71" fill="#ADD1B2" rx="11" ry="11" style="stroke:#181818;stroke-width:1;"/><path d="M979.4378,389.3506 Q978.8597,389.6475 978.2191,389.7881 Q977.5784,389.9444 976.8753,389.9444 Q974.3753,389.9444 973.0472,388.3038 Q971.7347,386.6475 971.7347,383.5225 Q971.7347,380.3975 973.0472,378.7413 Q974.3753,377.085 976.8753,377.085 Q977.5784,377.085 978.2191,377.2413 Q978.8753,377.3975 979.4378,377.6944 L979.4378,380.4131 Q978.8128,379.835 978.2191,379.5694 Q977.6253,379.2881 977.0003,379.2881 Q975.6566,379.2881 974.9691,380.3663 Q974.2816,381.4288 974.2816,383.5225 Q974.2816,385.6163 974.9691,386.6944 Q975.6566,387.7569 977.0003,387.7569 Q977.6253,387.7569 978.2191,387.4913 Q978.8128,387.21 979.4378,386.6319 L979.4378,389.3506 Z " fill="#000000"/><text fill="#000000" font-family="sans-serif" font-size="14" lengthAdjust="spacing" textLength="123.9902" x="992.8222" y="388.5567">CompositionTerm</text><line style="stroke:#181818;stroke-width:0.5;" x1="951.88" x2="1129.4015" y1="399.71" y2="399.71"/><g data-visibility-modifier="PUBLIC_FIELD"><ellipse cx="961.88" cy="413.3584" fill="none" rx="3" ry="3" style="stroke:#038048;stroke-width:1;"/></g><text fill="#000000" font-family="sans-serif" font-size="14" lengthAdjust="spacing" textLength="93.9531" x="970.88" y="416.7051">period: string</text><g data-visibility-modifier="PUBLIC_FIELD"><ellipse cx="961.88" cy="429.6553" fill="none" rx="3" ry="3" style="stroke:#038048;stroke-width:1;"/></g><text fill="#000000" font-family="sans-serif" font-size="14" lengthAdjust="spacing" textLength="153.5215" x="970.88" y="433.002">presidentTitle?: string</text><g data-visibility-modifier="PUBLIC_FIELD"><ellipse cx="961.88" cy="445.9522" fill="none" rx="3" ry="3" style="stroke:#038048;stroke-width:1;"/></g><text fill="#000000" font-family="sans-serif" font-size="14" lengthAdjust="spacing" textLength="115.6572" x="970.88" y="449.2989">president: string</text><g data-visibility-modifier="PUBLIC_FIELD"><ellipse cx="961.88" cy="462.2491" fill="none" rx="3" ry="3" style="stroke:#038048;stroke-width:1;"/></g><text fill="#000000" font-family="sans-serif" font-size="14" lengthAdjust="spacing" textLength="125.6035" x="970.88" y="465.5957">dateRange: string</text><g data-visibility-modifier="PUBLIC_FIELD"><ellipse cx="961.88" cy="478.5459" fill="none" rx="3" ry="3" style="stroke:#038048;stroke-width:1;"/></g><text fill="#000000" font-family="sans-serif" font-size="14" lengthAdjust="spacing" textLength="112.8545" x="970.88" y="481.8926">imageUrl: string</text><g data-visibility-modifier="PUBLIC_FIELD"><ellipse cx="961.88" cy="494.8428" fill="none" rx="3" ry="3" style="stroke:#038048;stroke-width:1;"/></g><text fill="#000000" font-family="sans-serif" font-size="14" lengthAdjust="spacing" textLength="111.918" x="970.88" y="498.1895">imageAlt: string</text><g data-visibility-modifier="PUBLIC_FIELD"><ellipse cx="961.88" cy="511.1397" fill="none" rx="3" ry="3" style="stroke:#038048;stroke-width:1;"/></g><text fill="#000000" font-family="sans-serif" font-size="14" lengthAdjust="spacing" textLength="116.0469" x="970.88" y="514.4864">sourceUrl: string</text><g data-visibility-modifier="PUBLIC_FIELD"><ellipse cx="961.88" cy="527.4366" fill="none" rx="3" ry="3" style="stroke:#038048;stroke-width:1;"/></g><text fill="#000000" font-family="sans-serif" font-size="14" lengthAdjust="spacing" textLength="126.7178" x="970.88" y="530.7832">members: string[]</text><line style="stroke:#181818;stroke-width:0.5;" x1="951.88" x2="1129.4015" y1="538.085" y2="538.085"/></g><!--class MemoriaData--><g class="entity" data-qualified-name="MemoriaData" data-source-line="51" id="ent0008"><rect fill="#F1F1F1" height="300.7188" rx="2.5" ry="2.5" style="stroke:#181818;stroke-width:0.5;" width="339.2295" x="270.03" y="7"/><ellipse cx="388.1208" cy="27.1328" fill="#ADD1B2" rx="11" ry="11" style="stroke:#181818;stroke-width:1;"/><path d="M391.0896,32.7734 Q390.5114,33.0703 389.8708,33.2109 Q389.2302,33.3672 388.5271,33.3672 Q386.0271,33.3672 384.6989,31.7266 Q383.3864,30.0703 383.3864,26.9453 Q383.3864,23.8203 384.6989,22.1641 Q386.0271,20.5078 388.5271,20.5078 Q389.2302,20.5078 389.8708,20.6641 Q390.5271,20.8203 391.0896,21.1172 L391.0896,23.8359 Q390.4646,23.2578 389.8708,22.9922 Q389.2771,22.7109 388.6521,22.7109 Q387.3083,22.7109 386.6208,23.7891 Q385.9333,24.8516 385.9333,26.9453 Q385.9333,29.0391 386.6208,30.1172 Q387.3083,31.1797 388.6521,31.1797 Q389.2771,31.1797 389.8708,30.9141 Q390.4646,30.6328 391.0896,30.0547 L391.0896,32.7734 Z " fill="#000000"/><text fill="#000000" font-family="sans-serif" font-size="12" font-style="italic" lengthAdjust="spacing" textLength="59.6543" x="426.0676" y="23.1387">&#171;module&#187;</text><text fill="#000000" font-family="sans-serif" font-size="14" lengthAdjust="spacing" textLength="94.5479" x="408.6208" y="38.9639">MemoriaData</text><line style="stroke:#181818;stroke-width:0.5;" x1="271.03" x2="608.2595" y1="47.2656" y2="47.2656"/><g data-visibility-modifier="PUBLIC_FIELD"><ellipse cx="281.03" cy="60.9141" fill="none" rx="3" ry="3" style="stroke:#038048;stroke-width:1;"/></g><text fill="#000000" font-family="sans-serif" font-size="14" lengthAdjust="spacing" textLength="138.5713" x="290.03" y="64.2607">VERIFIED_AT: string</text><g data-visibility-modifier="PUBLIC_FIELD"><ellipse cx="281.03" cy="77.2109" fill="none" rx="3" ry="3" style="stroke:#038048;stroke-width:1;"/></g><text fill="#000000" font-family="sans-serif" font-size="14" lengthAdjust="spacing" textLength="233.4473" x="290.03" y="80.5576">sources: Record&lt;string, Source&gt;</text><g data-visibility-modifier="PUBLIC_FIELD"><ellipse cx="281.03" cy="93.5078" fill="none" rx="3" ry="3" style="stroke:#038048;stroke-width:1;"/></g><text fill="#000000" font-family="sans-serif" font-size="14" lengthAdjust="spacing" textLength="158.3203" x="290.03" y="96.8545">museumFacts: string[]</text><g data-visibility-modifier="PUBLIC_FIELD"><ellipse cx="281.03" cy="109.8047" fill="none" rx="3" ry="3" style="stroke:#038048;stroke-width:1;"/></g><text fill="#000000" font-family="sans-serif" font-size="14" lengthAdjust="spacing" textLength="121.1465" x="290.03" y="113.1514">visitInfo: VisitInfo</text><g data-visibility-modifier="PUBLIC_FIELD"><ellipse cx="281.03" cy="126.1016" fill="none" rx="3" ry="3" style="stroke:#038048;stroke-width:1;"/></g><text fill="#000000" font-family="sans-serif" font-size="14" lengthAdjust="spacing" textLength="183.2373" x="290.03" y="129.4482">acervoCategories: string[]</text><g data-visibility-modifier="PUBLIC_FIELD"><ellipse cx="281.03" cy="142.3984" fill="none" rx="3" ry="3" style="stroke:#038048;stroke-width:1;"/></g><text fill="#000000" font-family="sans-serif" font-size="14" lengthAdjust="spacing" textLength="181.9795" x="290.03" y="145.7451">publications: Publication[]</text><g data-visibility-modifier="PUBLIC_FIELD"><ellipse cx="281.03" cy="158.6953" fill="none" rx="3" ry="3" style="stroke:#038048;stroke-width:1;"/></g><text fill="#000000" font-family="sans-serif" font-size="14" lengthAdjust="spacing" textLength="256.9834" x="290.03" y="162.042">writtenHistoryVolumes: Publication[]</text><g data-visibility-modifier="PUBLIC_FIELD"><ellipse cx="281.03" cy="174.9922" fill="none" rx="3" ry="3" style="stroke:#038048;stroke-width:1;"/></g><text fill="#000000" font-family="sans-serif" font-size="14" lengthAdjust="spacing" textLength="166.127" x="290.03" y="178.3389">exhibitions: Exhibition[]</text><g data-visibility-modifier="PUBLIC_FIELD"><ellipse cx="281.03" cy="191.2891" fill="none" rx="3" ry="3" style="stroke:#038048;stroke-width:1;"/></g><text fill="#000000" font-family="sans-serif" font-size="14" lengthAdjust="spacing" textLength="177.0508" x="290.03" y="194.6357">timeline: TimelineEvent[]</text><g data-visibility-modifier="PUBLIC_FIELD"><ellipse cx="281.03" cy="207.5859" fill="none" rx="3" ry="3" style="stroke:#038048;stroke-width:1;"/></g><text fill="#000000" font-family="sans-serif" font-size="14" lengthAdjust="spacing" textLength="133.8271" x="290.03" y="210.9326">videos: VideoLink[]</text><g data-visibility-modifier="PUBLIC_FIELD"><ellipse cx="281.03" cy="223.8828" fill="none" rx="3" ry="3" style="stroke:#038048;stroke-width:1;"/></g><text fill="#000000" font-family="sans-serif" font-size="14" lengthAdjust="spacing" textLength="174.9932" x="290.03" y="227.2295">eventVideos: VideoLink[]</text><g data-visibility-modifier="PUBLIC_FIELD"><ellipse cx="281.03" cy="240.1797" fill="none" rx="3" ry="3" style="stroke:#038048;stroke-width:1;"/></g><text fill="#000000" font-family="sans-serif" font-size="14" lengthAdjust="spacing" textLength="313.2295" x="290.03" y="243.5264">oralHistoryInterviews: OralHistoryInterview[]</text><g data-visibility-modifier="PUBLIC_FIELD"><ellipse cx="281.03" cy="256.4766" fill="none" rx="3" ry="3" style="stroke:#038048;stroke-width:1;"/></g><text fill="#000000" font-family="sans-serif" font-size="14" lengthAdjust="spacing" textLength="137.8125" x="290.03" y="259.8232">atribuicoes: string[]</text><g data-visibility-modifier="PUBLIC_FIELD"><ellipse cx="281.03" cy="272.7734" fill="none" rx="3" ry="3" style="stroke:#038048;stroke-width:1;"/></g><text fill="#000000" font-family="sans-serif" font-size="14" lengthAdjust="spacing" textLength="200.0195" x="290.03" y="276.1201">curatedPaths: CuratedPath[]</text><line style="stroke:#181818;stroke-width:0.5;" x1="271.03" x2="608.2595" y1="283.4219" y2="283.4219"/><g data-visibility-modifier="PUBLIC_METHOD"><ellipse cx="281.03" cy="297.0703" fill="#84BE84" rx="3" ry="3" style="stroke:#038048;stroke-width:1;"/></g><text fill="#000000" font-family="sans-serif" font-size="14" lengthAdjust="spacing" textLength="261.3379" x="290.03" y="300.417">findExhibitionByTitle(title): Exhibition</text></g><!--class ComposicaoData--><g class="entity" data-qualified-name="ComposicaoData" data-source-line="69" id="ent0009"><rect fill="#F1F1F1" height="72.5625" rx="2.5" ry="2.5" style="stroke:#181818;stroke-width:0.5;" width="299.2871" x="891" y="121.07"/><ellipse cx="976.9517" cy="141.2028" fill="#ADD1B2" rx="11" ry="11" style="stroke:#181818;stroke-width:1;"/><path d="M979.9204,146.8434 Q979.3423,147.1403 978.7017,147.2809 Q978.061,147.4372 977.3579,147.4372 Q974.8579,147.4372 973.5298,145.7966 Q972.2173,144.1403 972.2173,141.0153 Q972.2173,137.8903 973.5298,136.2341 Q974.8579,134.5778 977.3579,134.5778 Q978.061,134.5778 978.7017,134.7341 Q979.3579,134.8903 979.9204,135.1872 L979.9204,137.9059 Q979.2954,137.3278 978.7017,137.0622 Q978.1079,136.7809 977.4829,136.7809 Q976.1392,136.7809 975.4517,137.8591 Q974.7642,138.9216 974.7642,141.0153 Q974.7642,143.1091 975.4517,144.1872 Q976.1392,145.2497 977.4829,145.2497 Q978.1079,145.2497 978.7017,144.9841 Q979.2954,144.7028 979.9204,144.1247 L979.9204,146.8434 Z " fill="#000000"/><text fill="#000000" font-family="sans-serif" font-size="12" font-style="italic" lengthAdjust="spacing" textLength="59.6543" x="1027.0664" y="137.2087">&#171;module&#187;</text><text fill="#000000" font-family="sans-serif" font-size="14" lengthAdjust="spacing" textLength="118.8838" x="997.4517" y="153.0339">ComposicaoData</text><line style="stroke:#181818;stroke-width:0.5;" x1="892" x2="1189.2871" y1="161.3356" y2="161.3356"/><g data-visibility-modifier="PUBLIC_FIELD"><ellipse cx="902" cy="174.9841" fill="none" rx="3" ry="3" style="stroke:#038048;stroke-width:1;"/></g><text fill="#000000" font-family="sans-serif" font-size="14" lengthAdjust="spacing" textLength="273.2871" x="911" y="178.3307">compositionTerms: CompositionTerm[]</text><line style="stroke:#181818;stroke-width:0.5;" x1="892" x2="1189.2871" y1="185.6325" y2="185.6325"/></g><!--reverse link MemoriaData to Source--><g class="link" data-entity-1="ent0008" data-entity-2="ent0002" data-link-type="aggregation" data-source-line="73" id="lnk10"><path codeLine="73" d="M260.3318,291.2453 C225.8818,318.1453 199.83,339.57 167.64,367.71 C153.23,380.31 138.21,394.67 124.7,408.09" fill="none" id="MemoriaData-backto-Source" style="stroke:#181818;stroke-width:1;"/><polygon fill="none" points="269.79,283.86,262.5991,284.3999,260.3318,291.2453,267.5227,290.7054,269.79,283.86" style="stroke:#181818;stroke-width:1;"/><text fill="#000000" font-family="sans-serif" font-size="13" lengthAdjust="spacing" textLength="8.271" x="253.9183" y="286.3221">1</text><text fill="#000000" font-family="sans-serif" font-size="13" lengthAdjust="spacing" textLength="23.0356" x="106.5622" y="397.2469">0..*</text></g><!--reverse link MemoriaData to Publication--><g class="link" data-entity-1="ent0008" data-entity-2="ent0004" data-link-type="aggregation" data-source-line="74" id="lnk11"><path codeLine="74" d="M439.64,320 C439.64,340.41 439.64,348.79 439.64,367.61" fill="none" id="MemoriaData-backto-Publication" style="stroke:#181818;stroke-width:1;"/><polygon fill="none" points="439.64,308,435.64,314,439.64,320,443.64,314,439.64,308" style="stroke:#181818;stroke-width:1;"/><text fill="#000000" font-family="sans-serif" font-size="13" lengthAdjust="spacing" textLength="8.271" x="431.4526" y="327.73">1</text><text fill="#000000" font-family="sans-serif" font-size="13" lengthAdjust="spacing" textLength="23.0356" x="415.6893" y="356.6672">0..*</text></g><!--reverse link MemoriaData to Exhibition--><g class="link" data-entity-1="ent0008" data-entity-2="ent0003" data-link-type="aggregation" data-source-line="75" id="lnk12"><path codeLine="75" d="M341.3234,318.2215 C325.1234,344.5615 315.23,360.64 301.11,383.6" fill="none" id="MemoriaData-backto-Exhibition" style="stroke:#181818;stroke-width:1;"/><polygon fill="none" points="347.61,308,341.0595,311.0152,341.3234,318.2215,347.8739,315.2063,347.61,308" style="stroke:#181818;stroke-width:1;"/><text fill="#000000" font-family="sans-serif" font-size="13" lengthAdjust="spacing" textLength="8.271" x="334.9649" y="327.73">1</text><text fill="#000000" font-family="sans-serif" font-size="13" lengthAdjust="spacing" textLength="23.0356" x="281.2538" y="372.9719">0..*</text></g><!--reverse link MemoriaData to TimelineEvent--><g class="link" data-entity-1="ent0008" data-entity-2="ent0005" data-link-type="aggregation" data-source-line="76" id="lnk13"><path codeLine="76" d="M540.6001,318.1445 C563.5501,354.4645 580.05,380.58 597.44,408.1" fill="none" id="MemoriaData-backto-TimelineEvent" style="stroke:#181818;stroke-width:1;"/><polygon fill="none" points="534.19,308,534.0136,315.2089,540.6001,318.1445,540.7766,310.9355,534.19,308" style="stroke:#181818;stroke-width:1;"/><text fill="#000000" font-family="sans-serif" font-size="13" lengthAdjust="spacing" textLength="8.271" x="530.5823" y="327.73">1</text><text fill="#000000" font-family="sans-serif" font-size="13" lengthAdjust="spacing" textLength="23.0356" x="568.5787" y="397.2583">0..*</text></g><!--reverse link MemoriaData to OralHistoryInterview--><g class="link" data-entity-1="ent0008" data-entity-2="ent0006" data-link-type="aggregation" data-source-line="77" id="lnk14"><path codeLine="77" d="M619.2889,289.4047 C656.4789,317.1447 685.81,339.54 721.64,367.71 C734.63,377.92 748.31,389.04 761.38,399.82" fill="none" id="MemoriaData-backto-OralHistoryInterview" style="stroke:#181818;stroke-width:1;"/><polygon fill="none" points="609.67,282.23,612.0879,289.0237,619.2889,289.4047,616.871,282.6111,609.67,282.23" style="stroke:#181818;stroke-width:1;"/><text fill="#000000" font-family="sans-serif" font-size="13" lengthAdjust="spacing" textLength="8.271" x="617.0174" y="284.2513">1</text><text fill="#000000" font-family="sans-serif" font-size="13" lengthAdjust="spacing" textLength="23.0356" x="729.3905" y="389.4271">0..*</text></g><!--reverse link ComposicaoData to CompositionTerm--><g class="link" data-entity-1="ent0009" data-entity-2="ent0007" data-link-type="aggregation" data-source-line="78" id="lnk15"><path codeLine="78" d="M1040.64,205.95 C1040.64,248.53 1040.64,309.32 1040.64,367.38" fill="none" id="ComposicaoData-backto-CompositionTerm" style="stroke:#181818;stroke-width:1;"/><polygon fill="none" points="1040.64,193.95,1036.64,199.95,1040.64,205.95,1044.64,199.95,1040.64,193.95" style="stroke:#181818;stroke-width:1;"/><text fill="#000000" font-family="sans-serif" font-size="13" lengthAdjust="spacing" textLength="8.271" x="1031.9752" y="213.6078">1</text><text fill="#000000" font-family="sans-serif" font-size="13" lengthAdjust="spacing" textLength="16.542" x="1024.024" y="356.7211">57</text></g><?plantuml-src hLDDQzj04BtxLmYTchO9wQ4KZB5n78SQMXfSrvTIocerTeRiXzWFfwRqltUbbQMLl0X3Ux8rC_lclPatb16jaw_IAWh9xr6Il64a0pPEj54ezcN0gixd0HJk4FAvQQ9_HYDQuIn_FM661gNmM4SWAdnhq30Om4PEzl0j4fip4yPqnJSiR2WysemX9Is7ivxQPcUnFj4SD5LOb2WNq9t5-Cuk9Bn13Wm5B0yWp8LZYz5h0ByemZwYDb8TLyA0EY2yU5n1-3zFlscpaBoGkbhs1XJt7Gfd3fc708K2ZRcJjYb5pAAfZZHYO4t47lwFBroG0yz0wLFe-uzMmsVWKY6v9uOaamcNkMKmdNefs-LwzR1Qtl-SRyvREBGrKAdoYS-yhKzeMZMq6Yn_8DI4JSlJGJUlbTZ9SR8z_ItZXBejoOLJldTqeFUgQ1tjCe6_VVf5eJ4Wwerl9RCSOdNGtARBjeVgawOsuRXhnnFj7AGkERlVJoYUQy2oOXlFoOW7NLNCclu1SO8pYrJsrLEht5poHsAUN6RHVldq3aNUYhaxLYvxLHtCLIZppBUKoEZQQTVMPSzknFidT4xwBatazNMItjxSl4vh9mnL1BiPAWlO3rHr5ZPK61l-g3UDvidx3sbV-5y0?></g></svg>