<svg xmlns="http://www.w3.org/2000/svg" xmlns:xlink="http://www.w3.org/1999/xlink" contentStyleType="text/css" data-diagram-type="DESCRIPTION" height="589px" preserveAspectRatio="none" style="width:1851px;height:589px;background:#FFFFFF;" version="1.1" viewBox="0 0 1851 589" width="1851px" zoomAndPan="magnify"><?plantuml 1.2026.4beta2?><defs/><g><!--cluster DevMachine--><g class="cluster" data-qualified-name="DevMachine" data-source-line="1" id="ent0002"><polygon fill="none" points="285,16,295,6,705,6,705,107.3,695,117.3,285,117.3,285,16" style="stroke:#181818;stroke-width:1;"/><line style="stroke:#181818;stroke-width:1;" x1="695" x2="705" y1="16" y2="6"/><line style="stroke:#181818;stroke-width:1;" x1="285" x2="695" y1="16" y2="16"/><line style="stroke:#181818;stroke-width:1;" x1="695" x2="695" y1="16" y2="117.3"/><text fill="#000000" font-family="sans-serif" font-size="14" font-weight="700" lengthAdjust="spacing" textLength="210.0068" x="385.9966" y="31.9951">Esta&#231;&#227;o Do Desenvolvedor</text></g><!--cluster Dist--><g class="cluster" data-qualified-name="Dist" data-source-line="6" id="ent0005"><polygon fill="none" points="16,192.3,26,182.3,705,182.3,705,441.89,695,451.89,16,451.89,16,192.3" style="stroke:#181818;stroke-width:1;"/><line style="stroke:#181818;stroke-width:1;" x1="695" x2="705" y1="192.3" y2="182.3"/><line style="stroke:#181818;stroke-width:1;" x1="16" x2="695" y1="192.3" y2="192.3"/><line style="stroke:#181818;stroke-width:1;" x1="695" x2="695" y1="192.3" y2="451.89"/><text fill="#000000" font-family="sans-serif" font-size="14" font-weight="700" lengthAdjust="spacing" textLength="134.0938" x="289.4531" y="208.2951">Artefato Est&#225;tico</text></g><!--cluster Liferay--><g class="cluster" data-qualified-name="Liferay" data-source-line="14" id="ent0011"><polygon fill="none" points="1025,350.6,1035,340.6,1541,340.6,1541,441.89,1531,451.89,1025,451.89,1025,350.6" style="stroke:#181818;stroke-width:1;"/><line style="stroke:#181818;stroke-width:1;" x1="1531" x2="1541" y1="350.6" y2="340.6"/><line style="stroke:#181818;stroke-width:1;" x1="1025" x2="1531" y1="350.6" y2="350.6"/><line style="stroke:#181818;stroke-width:1;" x1="1531" x2="1531" y1="350.6" y2="451.89"/><text fill="#000000" font-family="sans-serif" font-size="14" font-weight="700" lengthAdjust="spacing" textLength="157.3564" x="1200.3218" y="366.5951">Portal TJSC / Liferay</text></g><!--entity C?digo-fonte--><g class="entity" data-qualified-name="DevMachine.C.digo-fonte" data-source-line="2" id="ent0003"><rect fill="#F1F1F1" height="39.2969" rx="2.5" ry="2.5" style="stroke:#181818;stroke-width:0.5;" width="120.0908" x="308.95" y="54"/><polygon fill="#F1F1F1" points="412.0408,59,412.0408,73,424.0408,73,424.0408,65,418.0408,59,412.0408,59" style="stroke:#181818;stroke-width:0.5;"/><line style="stroke:#181818;stroke-width:0.5;" x1="418.0408" x2="418.0408" y1="59" y2="65"/><line style="stroke:#181818;stroke-width:0.5;" x1="424.0408" x2="418.0408" y1="65" y2="65"/><text fill="#000000" font-family="sans-serif" font-size="14" lengthAdjust="spacing" textLength="90.0908" x="318.95" y="79.9951">C&#243;digo-fonte</text></g><!--entity npx pnpm@10.4.1 build--><g class="entity" data-qualified-name="DevMachine.npx pnpm.10.4.1 build" data-source-line="3" id="ent0004"><rect fill="#F1F1F1" height="39.2969" rx="2.5" ry="2.5" style="stroke:#181818;stroke-width:0.5;" width="198.1846" x="463.91" y="54"/><polygon fill="#F1F1F1" points="645.0946,59,645.0946,73,657.0946,73,657.0946,65,651.0946,59,645.0946,59" style="stroke:#181818;stroke-width:0.5;"/><line style="stroke:#181818;stroke-width:0.5;" x1="651.0946" x2="651.0946" y1="59" y2="65"/><line style="stroke:#181818;stroke-width:0.5;" x1="657.0946" x2="651.0946" y1="65" y2="65"/><text fill="#000000" font-family="sans-serif" font-size="14" lengthAdjust="spacing" textLength="168.1846" x="473.91" y="79.9951">npx pnpm@10.4.1 build</text></g><!--entity dist/public/index.html--><g class="entity" data-qualified-name="Dist.dist.public.index.html" data-source-line="7" id="ent0006"><rect fill="#F1F1F1" height="39.2969" rx="2.5" ry="2.5" style="stroke:#181818;stroke-width:0.5;" width="182.0039" x="40" y="230.3"/><polygon fill="#F1F1F1" points="205.0039,235.3,205.0039,249.3,217.0039,249.3,217.0039,241.3,211.0039,235.3,205.0039,235.3" style="stroke:#181818;stroke-width:0.5;"/><line style="stroke:#181818;stroke-width:0.5;" x1="211.0039" x2="211.0039" y1="235.3" y2="241.3"/><line style="stroke:#181818;stroke-width:0.5;" x1="217.0039" x2="211.0039" y1="241.3" y2="241.3"/><text fill="#000000" font-family="sans-serif" font-size="14" lengthAdjust="spacing" textLength="152.0039" x="50" y="256.2951">dist/public/index.html</text></g><!--entity dist/public/assets/*.js--><g class="entity" data-qualified-name="Dist.dist.public.assets...js" data-source-line="8" id="ent0007"><rect fill="#F1F1F1" height="39.2969" rx="2.5" ry="2.5" style="stroke:#181818;stroke-width:0.5;" width="179.0303" x="257.48" y="230.3"/><polygon fill="#F1F1F1" points="419.5103,235.3,419.5103,249.3,431.5103,249.3,431.5103,241.3,425.5103,235.3,419.5103,235.3" style="stroke:#181818;stroke-width:0.5;"/><line style="stroke:#181818;stroke-width:0.5;" x1="425.5103" x2="425.5103" y1="235.3" y2="241.3"/><line style="stroke:#181818;stroke-width:0.5;" x1="431.5103" x2="425.5103" y1="241.3" y2="241.3"/><text fill="#000000" font-family="sans-serif" font-size="14" lengthAdjust="spacing" textLength="149.0303" x="267.48" y="256.2951">dist/public/assets/*.js</text></g><!--entity dist/public/assets/*.css--><g class="entity" data-qualified-name="Dist.dist.public.assets...css" data-source-line="9" id="ent0008"><rect fill="#F1F1F1" height="39.2969" rx="2.5" ry="2.5" style="stroke:#181818;stroke-width:0.5;" width="190.1318" x="471.93" y="230.3"/><polygon fill="#F1F1F1" points="645.0618,235.3,645.0618,249.3,657.0618,249.3,657.0618,241.3,651.0618,235.3,645.0618,235.3" style="stroke:#181818;stroke-width:0.5;"/><line style="stroke:#181818;stroke-width:0.5;" x1="651.0618" x2="651.0618" y1="235.3" y2="241.3"/><line style="stroke:#181818;stroke-width:0.5;" x1="657.0618" x2="651.0618" y1="241.3" y2="241.3"/><text fill="#000000" font-family="sans-serif" font-size="14" lengthAdjust="spacing" textLength="160.1318" x="481.93" y="256.2951">dist/public/assets/*.css</text></g><!--entity dist/public/images/**--><g class="entity" data-qualified-name="Dist.dist.public.images..." data-source-line="10" id="ent0009"><rect fill="#F1F1F1" height="39.2969" rx="2.5" ry="2.5" style="stroke:#181818;stroke-width:0.5;" width="176.7334" x="42.63" y="388.6"/><polygon fill="#F1F1F1" points="202.3634,393.6,202.3634,407.6,214.3634,407.6,214.3634,399.6,208.3634,393.6,202.3634,393.6" style="stroke:#181818;stroke-width:0.5;"/><line style="stroke:#181818;stroke-width:0.5;" x1="208.3634" x2="208.3634" y1="393.6" y2="399.6"/><line style="stroke:#181818;stroke-width:0.5;" x1="214.3634" x2="208.3634" y1="399.6" y2="399.6"/><text fill="#000000" font-family="sans-serif" font-size="14" lengthAdjust="spacing" textLength="146.7334" x="52.63" y="414.5951">dist/public/images/**</text></g><!--entity dist/index.js (Express opcional)--><g class="entity" data-qualified-name="Dist.dist.index.js .Express opcional." data-source-line="11" id="ent0010"><rect fill="#F1F1F1" height="39.2969" rx="2.5" ry="2.5" style="stroke:#181818;stroke-width:0.5;" width="248.2031" x="253.9" y="388.6"/><polygon fill="#F1F1F1" points="485.1031,393.6,485.1031,407.6,497.1031,407.6,497.1031,399.6,491.1031,393.6,485.1031,393.6" style="stroke:#181818;stroke-width:0.5;"/><line style="stroke:#181818;stroke-width:0.5;" x1="491.1031" x2="491.1031" y1="393.6" y2="399.6"/><line style="stroke:#181818;stroke-width:0.5;" x1="497.1031" x2="491.1031" y1="399.6" y2="399.6"/><text fill="#000000" font-family="sans-serif" font-size="14" lengthAdjust="spacing" textLength="218.2031" x="263.9" y="414.5951">dist/index.js (Express opcional)</text></g><!--entity P?gina institucional--><g class="entity" data-qualified-name="Liferay.P.gina institucional" data-source-line="15" id="ent0012"><rect fill="#F1F1F1" height="39.2969" rx="2.5" ry="2.5" style="stroke:#181818;stroke-width:0.5;" width="166.9922" x="1048.5" y="388.6"/><polygon fill="#F1F1F1" points="1198.4922,393.6,1198.4922,407.6,1210.4922,407.6,1210.4922,399.6,1204.4922,393.6,1198.4922,393.6" style="stroke:#181818;stroke-width:0.5;"/><line style="stroke:#181818;stroke-width:0.5;" x1="1204.4922" x2="1204.4922" y1="393.6" y2="399.6"/><line style="stroke:#181818;stroke-width:0.5;" x1="1210.4922" x2="1204.4922" y1="399.6" y2="399.6"/><text fill="#000000" font-family="sans-serif" font-size="14" lengthAdjust="spacing" textLength="136.9922" x="1058.5" y="414.5951">P&#225;gina institucional</text></g><!--entity Fragmento ou Client Extension--><g class="entity" data-qualified-name="Liferay.Fragmento ou Client Extension" data-source-line="16" id="ent0013"><rect fill="#F1F1F1" height="39.2969" rx="2.5" ry="2.5" style="stroke:#181818;stroke-width:0.5;" width="246.501" x="1250.75" y="388.6"/><polygon fill="#F1F1F1" points="1480.251,393.6,1480.251,407.6,1492.251,407.6,1492.251,399.6,1486.251,393.6,1480.251,393.6" style="stroke:#181818;stroke-width:0.5;"/><line style="stroke:#181818;stroke-width:0.5;" x1="1486.251" x2="1486.251" y1="393.6" y2="399.6"/><line style="stroke:#181818;stroke-width:0.5;" x1="1492.251" x2="1486.251" y1="399.6" y2="399.6"/><text fill="#000000" font-family="sans-serif" font-size="14" lengthAdjust="spacing" textLength="216.501" x="1260.75" y="414.5951">Fragmento ou Client Extension</text></g><!--entity Media--><g class="entity" data-qualified-name="Media" data-source-line="19" id="ent0014"><path d="M739.631,393.4405 C744.7345,387.2702 751.6106,386.5193 755.1324,395.1024 C759.7732,385.182 767.8409,383.6473 775.4832,391.7048 C780.9563,383.6117 789.1866,383.2814 794.5738,391.8035 C798.6821,384.3129 806.3785,383.1909 810.6898,391.5977 C815.8052,381.133 823.3313,379.6826 830.4047,389.7144 C835.163,380.3341 844.0426,380.5797 848.72,389.794 C852.4826,382.0088 860.5672,381.4073 865.2644,388.7734 C871.6634,380.7703 878.7838,378.8583 885.1218,388.8408 C891.0503,380.1798 896.5897,379.8112 902.1888,389.1532 C907.4471,378.3693 917.0155,379.0063 922.547,388.8841 C927.6153,381.5789 936.2063,382.7065 940.183,390.1863 C947.7326,382.1431 954.3579,383.5759 959.684,392.7104 C965.4858,384.3871 972.3733,384.8965 977.456,393.4669 C982.4704,384.7695 989.3922,386.1143 994.7368,393.1032 C999.4239,393.5946 1001.2122,397.3083 998.1376,401.1004 C1001.9985,402.0602 1002.8545,405.6362 1000.0667,408.3623 C1002.3866,411.9127 1001.7927,414.8777 997.364,416.0579 C1000.5871,419.8592 1000.2188,422.5714 995.7172,424.9405 C990.8933,433.3864 981.9945,435.8743 975.7829,426.4921 C971.8436,434.8938 963.14,436.3454 957.7686,428.0359 C953.663,435.9683 948.4484,438.2921 941.3704,431.3022 C934.9941,439.6166 928.9398,440.1451 923.2445,430.6107 C917.765,440.475 911.6798,443.2764 902.7774,434.3362 C897.1582,442.0986 891.2336,441.2184 886.011,433.8954 C881.123,442.2016 875.7258,444.5677 868.0468,437.0674 C859.985,445.6034 854.2755,443.5189 849.9952,433.4069 C844.0411,442.4287 837.1781,442.6238 831.3743,433.2548 C824.6636,441.4718 817.0179,441.4503 811.3073,432.1116 C804.7479,439.8211 798.4931,440.1671 793.5333,430.4776 C786.6986,440.661 779.2932,439.156 773.5295,429.403 C767.0642,437.0593 759.5752,436.3166 755.6441,426.7685 C749.3385,433.9797 740.5071,432.1404 736.8069,423.644 C727.5253,424.9403 723.6587,420.6302 724.6505,411.577 C722.0765,398.7893 726.2727,393.0683 739.631,393.4405" fill="#F1F1F1" style="stroke:#181818;stroke-width:0.5;"/><text fill="#000000" font-family="sans-serif" font-size="14" lengthAdjust="spacing" textLength="242.6211" x="743.69" y="413.0951">Documentos e M&#237;dia / CDN Interno</text></g><!--entity Atom--><g class="entity" data-qualified-name="Atom" data-source-line="20" id="ent0015"><path d="M1291.3159,532.5286 C1294.1574,526.7733 1297.9664,524.7493 1303.239,529.8612 C1306.1179,523.1606 1310.6897,522.6375 1315.0347,528.4828 C1318.704,522.5483 1324.6352,522.8834 1327.3118,529.4571 C1332.9173,524.6276 1337.6182,526.5205 1340.3056,532.8538 C1347.2479,535.506 1348.3188,540.3937 1343.9893,546.1652 C1349.5581,553.5916 1348.1889,559.2624 1339.5361,562.9057 C1336.3229,568.8982 1331.4581,568.9019 1328.0277,563.1179 C1323.5656,568.4871 1319.7875,567.921 1315.9678,562.406 C1311.6885,569.7006 1307.5941,569.0586 1302.5427,563.1937 C1298.8941,568.5451 1294.6148,568.2131 1291.0551,563.096 C1282.6678,559.9519 1281.2049,554.4708 1287.9972,548.2088 C1281.8821,542.2492 1282.6244,535.3543 1291.3159,532.5286" fill="#F1F1F1" style="stroke:#181818;stroke-width:0.5;"/><text fill="#000000" font-family="sans-serif" font-size="14" lengthAdjust="spacing" textLength="35.7109" x="1296.14" y="550.8851">AtoM</text></g><!--entity TjscDocs--><g class="entity" data-qualified-name="TjscDocs" data-source-line="21" id="ent0016"><path d="M1479.5287,532.3021 C1483.5407,526.2496 1490.1876,525.408 1494.2913,532.1967 C1496.562,526.0113 1502.3797,523.1367 1507.3586,529.3402 C1510.8407,523.901 1516.418,523.4692 1520.087,529.1257 C1525.2332,522.443 1530.1417,521.5292 1534.9393,529.4795 C1538.4937,522.7105 1544.4122,522.9068 1548.3294,529.1048 C1553.2511,524.5111 1557.1657,524.8013 1560.2677,531.0994 C1565.3562,524.9941 1569.8968,522.9462 1575.2489,530.8169 C1580.579,525.2626 1585.5106,526.3823 1588.8621,533.0251 C1595.3007,536.7623 1596.3111,542.3925 1589.6513,546.876 C1595.7088,551.685 1595.6161,556.9972 1589.4327,561.6248 C1585.7699,569.3883 1578.7672,569.6253 1574.789,561.9236 C1570.8264,569.3837 1566.7426,569.0243 1561.7385,562.9261 C1558.3707,569.5908 1551.333,569.9022 1546.9231,564.1716 C1543.5213,569.9892 1539.2112,570.5855 1534.4004,565.8424 C1528.836,570.9555 1524.2168,570.8187 1520.497,563.739 C1516.6099,569.8981 1511.5089,571.4457 1506.8187,564.5826 C1502.0014,571.482 1495.8215,570.4054 1492.771,562.8639 C1489.0381,568.6305 1483.4153,569.6215 1479.9149,562.6296 C1469.667,560.5264 1467.7882,554.7764 1472.7169,546.0746 C1468.2252,538.6824 1470.816,533.1635 1479.5287,532.3021" fill="#F1F1F1" style="stroke:#181818;stroke-width:0.5;"/><text fill="#000000" font-family="sans-serif" font-size="14" lengthAdjust="spacing" textLength="94.7803" x="1485.61" y="550.8851">Servi&#231;os TJSC</text></g><!--entity YT--><g class="entity" data-qualified-name="YT" data-source-line="22" id="ent0017"><path d="M1687.2688,532.0625 C1691.3404,526.1516 1695.6514,525.2365 1700.0791,531.6937 C1703.5809,524.6942 1707.6609,524.495 1712.6539,530.2201 C1714.9958,524.149 1721.4448,523.6053 1725.4503,528.2298 C1728.5863,523.839 1734.0657,523.853 1736.4976,529.0417 C1741.7424,524.5754 1746.5142,524.8491 1749.4719,531.6706 C1754.0178,524.9395 1758.8065,524.41 1763.0623,531.9469 C1771.3434,533.0486 1775.0429,539.6203 1768.622,546.3838 C1774.3315,553.9302 1769.9782,560.3517 1761.6025,561.2452 C1760.3373,567.9909 1755.4483,569.1027 1750.8191,564.4193 C1748.0998,572.2722 1741.7667,572.2083 1736.9869,566.5248 C1734.3652,573.207 1729.4973,573.9476 1724.787,568.6523 C1720.2346,573.7942 1715.6609,574.6977 1712.2705,567.476 C1706.5037,572.245 1701.7511,571.1487 1700.1091,563.4519 C1696.5776,568.7914 1691.9413,569.5103 1688.5566,563.3049 C1679.4335,562.4913 1675.5791,554.6347 1680.3607,546.8819 C1675.791,538.9836 1677.6373,533.3409 1687.2688,532.0625" fill="#F1F1F1" style="stroke:#181818;stroke-width:0.5;"/><text fill="#000000" font-family="sans-serif" font-size="14" lengthAdjust="spacing" textLength="60.915" x="1693.54" y="550.8851">YouTube</text></g><!--link DevMachine to Dist--><g class="link" data-entity-1="ent0002" data-entity-2="ent0005" data-link-type="dependency" data-source-line="24" id="lnk18"><path d="M697,118.1455 C697,118.7253 697,119.3087 697,119.8953 C697,121.0686 697,122.2552 697,123.4538 C697,125.8512 697,128.2969 697,130.7813 C697,140.7188 697,151.2753 697,161.8313 C697,167.1092 697,172.3871 697,177.5873 C697,178.8874 697,180.1826 697,181.4718 C697,181.6329 697,175.7939 697,175.9549" fill="none" id="DevMachine-to-Dist" style="stroke:#181818;stroke-width:1;"/><polygon fill="#181818" points="697,181.9549,701,172.9549,697,176.9549,693,172.9549,697,181.9549" style="stroke:#181818;stroke-width:1;"/><text fill="#000000" font-family="sans-serif" font-size="13" lengthAdjust="spacing" textLength="108.0562" x="698" y="154.3669">pipeline de build</text></g><!--link Dist to Liferay--><g class="link" data-entity-1="ent0005" data-entity-2="ent0011" data-link-type="dependency" data-source-line="25" id="lnk19"><path d="M705.2976,251.1186 C705.9739,251.1331 706.6897,251.1487 707.4445,251.1652 C713.4828,251.2974 722.0112,251.4925 732.6899,251.7579 C754.0473,252.2888 784.0059,253.1009 819.8467,254.2538 C891.5284,256.5594 986.7394,260.2275 1083.7288,265.7325 C1277.7075,276.7425 1478.8,295.1 1513,324.6 C1516.465,327.5888 1519.3841,331.0655 1521.8386,334.8682 C1522.4522,335.8188 1523.0368,336.7899 1523.5937,337.7788 C1523.8721,338.2732 1524.1436,338.7721 1524.4083,339.2752 C1524.5406,339.5267 1524.6713,339.7793 1524.8002,340.0328 C1524.8647,340.1596 1522.2449,334.9204 1522.3086,335.0476" fill="none" id="Dist-to-Liferay" style="stroke:#181818;stroke-width:1;"/><polygon fill="#181818" points="1524.9925,340.4139,1524.5441,330.5752,1522.7559,335.942,1517.3891,334.1538,1524.9925,340.4139" style="stroke:#181818;stroke-width:1;"/><text fill="#000000" font-family="sans-serif" font-size="13" lengthAdjust="spacing" textLength="247.3174" x="1494" y="312.6669">index/assets em fragmento ou p&#225;gina</text></g><!--link Dist to Media--><g class="link" data-entity-1="ent0005" data-entity-2="ent0014" data-link-type="dependency" data-source-line="26" id="lnk20"><path d="M705.0302,258.4185 C705.9287,259.2545 706.8945,260.1529 707.9231,261.1098 C709.9804,263.0237 712.2893,265.1717 714.8158,267.522 C724.9216,276.9234 738.5081,289.5631 753.3963,303.4138 C783.1725,331.115 813.7621,359.5731 836.5171,380.7431" fill="none" id="Dist-to-Media" style="stroke:#181818;stroke-width:1;"/><polygon fill="#181818" points="840.91,384.83,837.0453,375.7711,837.2493,381.4243,831.5961,381.6283,840.91,384.83" style="stroke:#181818;stroke-width:1;"/><text fill="#000000" font-family="sans-serif" font-size="13" lengthAdjust="spacing" textLength="275.7168" x="766" y="312.6669">images/** quando publicado fora do HTML</text></g><!--link Liferay to Atom--><g class="link" data-entity-1="ent0011" data-entity-2="ent0015" data-link-type="dependency" data-source-line="27" id="lnk21"><path d="M1525.2722,452.0529 C1525.2276,452.1476 1525.1829,452.2421 1525.1378,452.3366 C1522.255,458.38 1518.3325,463.885 1513,467.89 C1482.59,490.75 1373.04,453.9 1342,475.89 C1326.99,486.53 1321.2253,500.7623 1317.9853,516.5623" fill="none" id="Liferay-to-Atom" style="stroke:#181818;stroke-width:1;"/><polygon fill="#181818" points="1316.78,522.44,1322.5064,514.427,1317.7844,517.5419,1314.6695,512.8199,1316.78,522.44" style="stroke:#181818;stroke-width:1;"/><text fill="#000000" font-family="sans-serif" font-size="13" lengthAdjust="spacing" textLength="177.0996" x="1343" y="488.9569">links externos da aplica&#231;&#227;o</text></g><!--link Liferay to TjscDocs--><g class="link" data-entity-1="ent0011" data-entity-2="ent0016" data-link-type="dependency" data-source-line="28" id="lnk22"><path d="M1530.3931,452.1977 C1530.3824,452.4757 1530.3717,452.7543 1530.3612,453.0335 C1530.3401,453.5918 1530.3195,454.1525 1530.2993,454.7153 C1530.259,455.8409 1530.2206,456.975 1530.1843,458.1161 C1530.1118,460.3983 1530.0479,462.7083 1529.9947,465.0338 C1529.7819,474.3356 1529.74,483.885 1530,492.89 C1530.28,502.59 1530.4782,507.3015 1531.0482,516.4815" fill="none" id="Liferay-to-TjscDocs" style="stroke:#181818;stroke-width:1;"/><polygon fill="#181818" points="1531.42,522.47,1534.8546,513.2394,1531.1101,517.4796,1526.8699,513.7352,1531.42,522.47" style="stroke:#181818;stroke-width:1;"/><text fill="#000000" font-family="sans-serif" font-size="13" lengthAdjust="spacing" textLength="149.9126" x="1531" y="488.9569">PDFs/imagens remotas</text></g><!--link Liferay to YT--><g class="link" data-entity-1="ent0011" data-entity-2="ent0017" data-link-type="dependency" data-source-line="29" id="lnk23"><path d="M1541.0358,410.8721 C1541.1493,410.8967 1541.2639,410.9216 1541.3795,410.9468 C1541.6108,410.9972 1541.8464,411.0488 1542.0863,411.1016 C1542.5659,411.2072 1543.0625,411.3174 1543.5755,411.4325 C1545.6273,411.8927 1547.9414,412.4294 1550.4852,413.0461 C1560.6603,415.5128 1574.5106,419.2594 1589.9513,424.5113 C1620.8325,435.015 1658.075,451.54 1685,475.89 C1699.11,488.65 1706.9613,502.2417 1713.3913,517.1317" fill="none" id="Liferay-to-YT" style="stroke:#181818;stroke-width:1;"/><polygon fill="#181818" points="1715.77,522.64,1715.8742,512.7917,1713.7878,518.0497,1708.5297,515.9633,1715.77,522.64" style="stroke:#181818;stroke-width:1;"/><text fill="#000000" font-family="sans-serif" font-size="13" lengthAdjust="spacing" textLength="135.6177" x="1700" y="488.9569">v&#237;deos referenciados</text></g><?plantuml-src ZLF1Yjim4BtxAmQVseKaNUXf3wLBagKjwn9ONt9Kf75MgQrHDR99AVsOfOSzzTHFy8zrBAzfihIbOD0myvxUp1lPaK78rnnL_zX_9rZ9Xuokexf3Go47nPBf2gNlhKFucW6e46sbT8HysVyqTa-pYbp4_Apa_16yyytRorVpr_DBsBMsDddsBSjSahmE4IiL2KIxVuXMqoXbEJuJCP9Q-7PNMxsmpk1nVX-RElyhHZ5ZvCN5_C3_0TBy3vHjr1u5TV47oDZAWU75-kW3CWDvRScf-kN9c1iAKTLGVhXRmW9kROL1VKcJFiNFXjtq3tlh55Z7qSPslF1S_IQeVODEhACMbhML4DR7Y8u5dAHrJQs1V4MwJK06XAB_OQoI7fQhZ_1UrXNSw7Y1afyerv6Ab9MWcP9t63hRFyermnYfN1vOo_KyGRRKbkqEKsrRPjd9YvdDtenRlG9lFTP3Jfn9xo5BXG4nkN45oTUd_G0sK9sEwqTxVlDIzmDhsXHyRfKp1EC6bKGL1GLolYkBsspI6RZ3Z4ALZZw9qZ5Pmc0KA3zGqmznHfYc5j9cTSFZyt0C0HkAYi-msr9GdPYED02aW4vRwOT_0G00?></g></svg>