<svg xmlns="http://www.w3.org/2000/svg" xmlns:xlink="http://www.w3.org/1999/xlink" contentStyleType="text/css" data-diagram-type="ACTIVITY" height="938px" preserveAspectRatio="none" style="width:678px;height:938px;background:#FFFFFF;" version="1.1" viewBox="0 0 678 938" width="678px" zoomAndPan="magnify"><?plantuml 1.2026.4beta2?><defs/><g><ellipse cx="301.939" cy="25" fill="#222222" rx="10" ry="10" style="stroke:#222222;stroke-width:1;"/><rect fill="#F1F1F1" height="33.9688" rx="12.5" ry="12.5" style="stroke:#181818;stroke-width:0.5;" width="209.1816" x="197.3481" y="55"/><text fill="#000000" font-family="sans-serif" font-size="12" lengthAdjust="spacing" textLength="189.1816" x="207.3481" y="76.1387">Rodar npx pnpm@10.4.1 check</text><polygon fill="#F1F1F1" points="248.3865,108.9688,355.4915,108.9688,367.4915,120.9688,355.4915,132.9688,248.3865,132.9688,236.3865,120.9688,248.3865,108.9688" style="stroke:#181818;stroke-width:0.5;"/><text fill="#000000" font-family="sans-serif" font-size="11" lengthAdjust="spacing" textLength="107.105" x="248.3865" y="124.7769">TypeScript passou?</text><text fill="#000000" font-family="sans-serif" font-size="11" lengthAdjust="spacing" textLength="19.5024" x="216.884" y="118.3745">sim</text><text fill="#000000" font-family="sans-serif" font-size="11" lengthAdjust="spacing" textLength="20.4424" x="367.4915" y="118.3745">n&#227;o</text><rect fill="#F1F1F1" height="33.9688" rx="12.5" ry="12.5" style="stroke:#181818;stroke-width:0.5;" width="169.7188" x="139.7837" y="142.9688"/><text fill="#000000" font-family="sans-serif" font-size="12" lengthAdjust="spacing" textLength="149.7188" x="149.7837" y="164.1074">Definir estrat&#233;gia Liferay</text><rect fill="#F1F1F1" height="33.9688" rx="12.5" ry="12.5" style="stroke:#181818;stroke-width:0.5;" width="99.4648" x="329.5024" y="142.9688"/><text fill="#000000" font-family="sans-serif" font-size="12" lengthAdjust="spacing" textLength="79.4648" x="339.5024" y="164.1074">Corrigir erros</text><ellipse cx="379.2349" cy="207.9375" fill="none" rx="11" ry="11" style="stroke:#222222;stroke-width:1;"/><ellipse cx="379.2349" cy="207.9375" fill="#222222" rx="6" ry="6" style="stroke:#222222;stroke-width:1;"/><polygon fill="#F1F1F1" points="204.3892,238.9375,399.4888,238.9375,411.4888,250.9375,399.4888,262.9375,204.3892,262.9375,192.3892,250.9375,204.3892,238.9375" style="stroke:#181818;stroke-width:0.5;"/><text fill="#000000" font-family="sans-serif" font-size="11" lengthAdjust="spacing" textLength="195.0996" x="204.3892" y="254.7456">images/ ficar&#225; junto do index.html?</text><text fill="#000000" font-family="sans-serif" font-size="11" lengthAdjust="spacing" textLength="19.5024" x="172.8867" y="248.3433">sim</text><text fill="#000000" font-family="sans-serif" font-size="11" lengthAdjust="spacing" textLength="20.4424" x="411.4888" y="248.3433">n&#227;o</text><rect fill="#F1F1F1" height="33.9688" rx="12.5" ry="12.5" style="stroke:#181818;stroke-width:0.5;" width="240.5879" x="16" y="272.9375"/><text fill="#000000" font-family="sans-serif" font-size="12" lengthAdjust="spacing" textLength="220.5879" x="26" y="294.0762">Build sem VITE_PUBLIC_ASSET_BASE</text><rect fill="#F1F1F1" height="33.9688" rx="12.5" ry="12.5" style="stroke:#181818;stroke-width:0.5;" width="381.9922" x="276.5879" y="272.9375"/><text fill="#000000" font-family="sans-serif" font-size="12" lengthAdjust="spacing" textLength="361.9922" x="286.5879" y="294.0762">Definir VITE_PUBLIC_ASSET_BASE para base real de images/</text><rect fill="#F1F1F1" height="33.9688" rx="12.5" ry="12.5" style="stroke:#181818;stroke-width:0.5;" width="198.9043" x="368.1318" y="326.9063"/><text fill="#000000" font-family="sans-serif" font-size="12" lengthAdjust="spacing" textLength="178.9043" x="378.1318" y="348.0449">Executar build com a vari&#225;vel</text><polygon fill="#F1F1F1" points="301.939,366.875,313.939,378.875,301.939,390.875,289.939,378.875,301.939,366.875" style="stroke:#181818;stroke-width:0.5;"/><rect fill="#F1F1F1" height="33.9688" rx="12.5" ry="12.5" style="stroke:#181818;stroke-width:0.5;" width="140.6035" x="231.6372" y="410.875"/><text fill="#000000" font-family="sans-serif" font-size="12" lengthAdjust="spacing" textLength="120.6035" x="241.6372" y="432.0137">Vite gera dist/public</text><rect fill="#F1F1F1" height="33.9688" rx="12.5" ry="12.5" style="stroke:#181818;stroke-width:0.5;" width="290.2168" x="156.8306" y="464.8438"/><text fill="#000000" font-family="sans-serif" font-size="12" lengthAdjust="spacing" textLength="270.2168" x="166.8306" y="485.9824">P&#243;s-processar CSS com scope-liferay-css.mjs</text><rect fill="#F1F1F1" height="33.9688" rx="12.5" ry="12.5" style="stroke:#181818;stroke-width:0.5;" width="220.6543" x="191.6118" y="518.8125"/><text fill="#000000" font-family="sans-serif" font-size="12" lengthAdjust="spacing" textLength="200.6543" x="201.6118" y="539.9512">esbuild empacota server/index.ts</text><rect fill="#F1F1F1" height="33.9688" rx="12.5" ry="12.5" style="stroke:#181818;stroke-width:0.5;" width="320.5449" x="141.6665" y="572.7813"/><text fill="#000000" font-family="sans-serif" font-size="12" lengthAdjust="spacing" textLength="300.5449" x="151.6665" y="593.9199">Publicar index/assets/images conforme estrat&#233;gia</text><rect fill="#F1F1F1" height="33.9688" rx="12.5" ry="12.5" style="stroke:#181818;stroke-width:0.5;" width="184.959" x="209.4595" y="626.75"/><text fill="#000000" font-family="sans-serif" font-size="12" lengthAdjust="spacing" textLength="164.959" x="219.4595" y="647.8887">Abrir URL da p&#225;gina Liferay</text><rect fill="#F1F1F1" height="33.9688" rx="12.5" ry="12.5" style="stroke:#181818;stroke-width:0.5;" width="178.6309" x="212.6235" y="680.7188"/><text fill="#000000" font-family="sans-serif" font-size="12" lengthAdjust="spacing" textLength="158.6309" x="222.6235" y="701.8574">Validar #/ e rotas internas</text><rect fill="#F1F1F1" height="33.9688" rx="12.5" ry="12.5" style="stroke:#181818;stroke-width:0.5;" width="219.8809" x="191.9985" y="734.6875"/><text fill="#000000" font-family="sans-serif" font-size="12" lengthAdjust="spacing" textLength="199.8809" x="201.9985" y="755.8262">Validar imagens locais e remotas</text><rect fill="#F1F1F1" height="33.9688" rx="12.5" ry="12.5" style="stroke:#181818;stroke-width:0.5;" width="333.4766" x="135.2007" y="788.6563"/><text fill="#000000" font-family="sans-serif" font-size="12" lengthAdjust="spacing" textLength="313.4766" x="145.2007" y="809.7949">Validar modal portaled com escopo .museu-tjsc-app</text><rect fill="#F1F1F1" height="33.9688" rx="12.5" ry="12.5" style="stroke:#181818;stroke-width:0.5;" width="280.0391" x="161.9194" y="842.625"/><text fill="#000000" font-family="sans-serif" font-size="12" lengthAdjust="spacing" textLength="260.0391" x="171.9194" y="863.7637">Validar que tema do portal n&#227;o foi alterado</text><ellipse cx="301.939" cy="907.5938" fill="none" rx="11" ry="11" style="stroke:#222222;stroke-width:1;"/><ellipse cx="301.939" cy="907.5938" fill="#222222" rx="6" ry="6" style="stroke:#222222;stroke-width:1;"/><line style="stroke:#181818;stroke-width:1;" x1="301.939" x2="301.939" y1="35" y2="55"/><polygon fill="#181818" points="297.939,45,301.939,55,305.939,45,301.939,49" style="stroke:#181818;stroke-width:1;"/><line style="stroke:#181818;stroke-width:1;" x1="379.2349" x2="379.2349" y1="176.9375" y2="196.9375"/><polygon fill="#181818" points="375.2349,186.9375,379.2349,196.9375,383.2349,186.9375,379.2349,190.9375" style="stroke:#181818;stroke-width:1;"/><line style="stroke:#181818;stroke-width:1;" x1="236.3865" x2="224.6431" y1="120.9688" y2="120.9688"/><line style="stroke:#181818;stroke-width:1;" x1="224.6431" x2="224.6431" y1="120.9688" y2="142.9688"/><polygon fill="#181818" points="220.6431,132.9688,224.6431,142.9688,228.6431,132.9688,224.6431,136.9688" style="stroke:#181818;stroke-width:1;"/><line style="stroke:#181818;stroke-width:1;" x1="367.4915" x2="379.2349" y1="120.9688" y2="120.9688"/><line style="stroke:#181818;stroke-width:1;" x1="379.2349" x2="379.2349" y1="120.9688" y2="142.9688"/><polygon fill="#181818" points="375.2349,132.9688,379.2349,142.9688,383.2349,132.9688,379.2349,136.9688" style="stroke:#181818;stroke-width:1;"/><line style="stroke:#181818;stroke-width:1;" x1="224.6431" x2="224.6431" y1="176.9375" y2="223.9375"/><line style="stroke:#181818;stroke-width:1;" x1="224.6431" x2="301.939" y1="223.9375" y2="223.9375"/><line style="stroke:#181818;stroke-width:1;" x1="301.939" x2="301.939" y1="223.9375" y2="238.9375"/><polygon fill="#181818" points="297.939,228.9375,301.939,238.9375,305.939,228.9375,301.939,232.9375" style="stroke:#181818;stroke-width:1;"/><line style="stroke:#181818;stroke-width:1;" x1="301.939" x2="301.939" y1="88.9688" y2="108.9688"/><polygon fill="#181818" points="297.939,98.9688,301.939,108.9688,305.939,98.9688,301.939,102.9688" style="stroke:#181818;stroke-width:1;"/><line style="stroke:#181818;stroke-width:1;" x1="467.584" x2="467.584" y1="306.9063" y2="326.9063"/><polygon fill="#181818" points="463.584,316.9063,467.584,326.9063,471.584,316.9063,467.584,320.9063" style="stroke:#181818;stroke-width:1;"/><line style="stroke:#181818;stroke-width:1;" x1="192.3892" x2="136.2939" y1="250.9375" y2="250.9375"/><line style="stroke:#181818;stroke-width:1;" x1="136.2939" x2="136.2939" y1="250.9375" y2="272.9375"/><polygon fill="#181818" points="132.2939,262.9375,136.2939,272.9375,140.2939,262.9375,136.2939,266.9375" style="stroke:#181818;stroke-width:1;"/><line style="stroke:#181818;stroke-width:1;" x1="411.4888" x2="467.584" y1="250.9375" y2="250.9375"/><line style="stroke:#181818;stroke-width:1;" x1="467.584" x2="467.584" y1="250.9375" y2="272.9375"/><polygon fill="#181818" points="463.584,262.9375,467.584,272.9375,471.584,262.9375,467.584,266.9375" style="stroke:#181818;stroke-width:1;"/><line style="stroke:#181818;stroke-width:1;" x1="136.2939" x2="136.2939" y1="306.9063" y2="378.875"/><line style="stroke:#181818;stroke-width:1;" x1="136.2939" x2="289.939" y1="378.875" y2="378.875"/><polygon fill="#181818" points="279.939,374.875,289.939,378.875,279.939,382.875,283.939,378.875" style="stroke:#181818;stroke-width:1;"/><line style="stroke:#181818;stroke-width:1;" x1="467.584" x2="467.584" y1="360.875" y2="378.875"/><line style="stroke:#181818;stroke-width:1;" x1="467.584" x2="313.939" y1="378.875" y2="378.875"/><polygon fill="#181818" points="323.939,374.875,313.939,378.875,323.939,382.875,319.939,378.875" style="stroke:#181818;stroke-width:1;"/><line style="stroke:#181818;stroke-width:1;" x1="301.939" x2="301.939" y1="390.875" y2="410.875"/><polygon fill="#181818" points="297.939,400.875,301.939,410.875,305.939,400.875,301.939,404.875" style="stroke:#181818;stroke-width:1;"/><line style="stroke:#181818;stroke-width:1;" x1="301.939" x2="301.939" y1="444.8438" y2="464.8438"/><polygon fill="#181818" points="297.939,454.8438,301.939,464.8438,305.939,454.8438,301.939,458.8438" style="stroke:#181818;stroke-width:1;"/><line style="stroke:#181818;stroke-width:1;" x1="301.939" x2="301.939" y1="498.8125" y2="518.8125"/><polygon fill="#181818" points="297.939,508.8125,301.939,518.8125,305.939,508.8125,301.939,512.8125" style="stroke:#181818;stroke-width:1;"/><line style="stroke:#181818;stroke-width:1;" x1="301.939" x2="301.939" y1="552.7813" y2="572.7813"/><polygon fill="#181818" points="297.939,562.7813,301.939,572.7813,305.939,562.7813,301.939,566.7813" style="stroke:#181818;stroke-width:1;"/><line style="stroke:#181818;stroke-width:1;" x1="301.939" x2="301.939" y1="606.75" y2="626.75"/><polygon fill="#181818" points="297.939,616.75,301.939,626.75,305.939,616.75,301.939,620.75" style="stroke:#181818;stroke-width:1;"/><line style="stroke:#181818;stroke-width:1;" x1="301.939" x2="301.939" y1="660.7188" y2="680.7188"/><polygon fill="#181818" points="297.939,670.7188,301.939,680.7188,305.939,670.7188,301.939,674.7188" style="stroke:#181818;stroke-width:1;"/><line style="stroke:#181818;stroke-width:1;" x1="301.939" x2="301.939" y1="714.6875" y2="734.6875"/><polygon fill="#181818" points="297.939,724.6875,301.939,734.6875,305.939,724.6875,301.939,728.6875" style="stroke:#181818;stroke-width:1;"/><line style="stroke:#181818;stroke-width:1;" x1="301.939" x2="301.939" y1="768.6563" y2="788.6563"/><polygon fill="#181818" points="297.939,778.6563,301.939,788.6563,305.939,778.6563,301.939,782.6563" style="stroke:#181818;stroke-width:1;"/><line style="stroke:#181818;stroke-width:1;" x1="301.939" x2="301.939" y1="822.625" y2="842.625"/><polygon fill="#181818" points="297.939,832.625,301.939,842.625,305.939,832.625,301.939,836.625" style="stroke:#181818;stroke-width:1;"/><line style="stroke:#181818;stroke-width:1;" x1="301.939" x2="301.939" y1="876.5938" y2="896.5938"/><polygon fill="#181818" points="297.939,886.5938,301.939,896.5938,305.939,886.5938,301.939,890.5938" style="stroke:#181818;stroke-width:1;"/><?plantuml-src RLAxRjj04Epv5GkaaGk9CP2AB199KM50XM3AQeNLSIcTV2_l7WNvSuHKgVC9_B4SoHWGuBHtipEpCoiHEMR5iw-HmOKh11ViZyUlis-pHr0dKgzbfXkORDy3LOfrY11GnBVV7o2UoC54j7t808gVr6Yd6KWYO-n-7pN2MZV4-5vcP8HWuhfVVi0kFRC-zc1cBsLwakX3HgxMJJReQOj7aXmQhP2x6vnR5ptK7hIhwJexHMi-ELYqsjGWP67tj5tjDo-BzTDoFw-grNQ_c5UhJpO-BFyVdXPbX0Ec4IOqK1FySzKRBbPNKcrA3mw3hF8M42x8khjTo9GVonGx7GcEAGQejSGyj0UZLPaLc-wFJ0DxHIA9PLbL0uSe7sXgnk2cIcHcpocXWcJK8HjG-OXfJxuGvsCUiOTi1kh4DRpbgIQAae-U4xThF5kwxoVDp0-S0dXvNaED4BhRKRkxseeT6jrVnfSSKWf9LX9v97OeTx-3X1CmNg6M7acsnzv1R3em0y5pH4DZMjIlwc5cMw5s6i-YfXZ2tSnRIn39Ob_xE0bzTT1u3MYI2wnzcVMNynS0?></g></svg>