<svg xmlns="http://www.w3.org/2000/svg" xmlns:xlink="http://www.w3.org/1999/xlink" contentStyleType="text/css" data-diagram-type="STATE" height="278px" preserveAspectRatio="none" style="width:796px;height:278px;background:#FFFFFF;" version="1.1" viewBox="0 0 796 278" width="796px" zoomAndPan="magnify"><?plantuml 1.2026.4beta2?><defs/><g><g class="start_entity" data-qualified-name=".start." data-source-line="1" id="ent0002"><ellipse cx="448.53" cy="16" fill="#222222" rx="10" ry="10" style="stroke:#222222;stroke-width:1;"/></g><g class="entity" data-qualified-name="Fechado" id="ent0003"><rect fill="#F1F1F1" height="50" rx="12.5" ry="12.5" style="stroke:#181818;stroke-width:0.5;" width="79.2676" x="408.9" y="87"/><line style="stroke:#181818;stroke-width:0.5;" x1="408.9" x2="488.1676" y1="113.2969" y2="113.2969"/><text fill="#000000" font-family="sans-serif" font-size="14" lengthAdjust="spacing" textLength="59.2676" x="418.9" y="104.9951">Fechado</text></g><g class="entity" data-qualified-name="Aberto" id="ent0005"><rect fill="#F1F1F1" height="50" rx="12.5" ry="12.5" style="stroke:#181818;stroke-width:0.5;" width="66.8877" x="371.09" y="214"/><line style="stroke:#181818;stroke-width:0.5;" x1="371.09" x2="437.9777" y1="240.2969" y2="240.2969"/><text fill="#000000" font-family="sans-serif" font-size="14" lengthAdjust="spacing" textLength="46.8877" x="381.09" y="231.9951">Aberto</text></g><g class="end_entity" data-qualified-name=".end." data-source-line="7" id="ent0011"><ellipse cx="771.53" cy="239" fill="none" rx="11" ry="11" style="stroke:#222222;stroke-width:1;"/><ellipse cx="771.53" cy="239" fill="#222222" rx="6" ry="6" style="stroke:#222222;stroke-width:1;"/></g><!--link *start* to Fechado--><g class="link" data-entity-1="ent0002" data-entity-2="ent0003" data-link-type="dependency" data-source-line="1" id="lnk4"><path d="M448.53,26.36 C448.53,40.29 448.53,60.95 448.53,80.65" fill="none" id="*start*-to-Fechado" style="stroke:#181818;stroke-width:1;"/><polygon fill="#181818" points="448.53,86.65,452.53,77.65,448.53,81.65,444.53,77.65,448.53,86.65" style="stroke:#181818;stroke-width:1;"/></g><!--link Fechado to Aberto--><g class="link" data-entity-1="ent0003" data-entity-2="ent0005" data-link-type="dependency" data-source-line="2" id="lnk6"><path d="M408.74,115.46 C312.43,121.8 72.99,140.15 49.53,167 C6,216.81 268.0853,232.457 364.7553,236.537" fill="none" id="Fechado-to-Aberto" style="stroke:#181818;stroke-width:1;"/><polygon fill="#181818" points="370.75,236.79,361.9267,232.414,365.7544,236.5792,361.5893,240.4069,370.75,236.79" style="stroke:#181818;stroke-width:1;"/><text fill="#000000" font-family="sans-serif" font-size="13" lengthAdjust="spacing" textLength="266.8682" x="50.53" y="180.0669">ativa&#231;&#227;o do trigger (clique/Enter/Espa&#231;o)</text></g><!--link Aberto to Fechado--><g class="link" data-entity-1="ent0005" data-entity-2="ent0003" data-link-type="dependency" data-source-line="3" id="lnk7"><path d="M372.7,213.54 C359.21,200.08 348.46,182.93 357.53,167 C368.53,147.68 383.9778,136.9984 402.9978,128.5384" fill="none" id="Aberto-to-Fechado" style="stroke:#181818;stroke-width:1;"/><polygon fill="#181818" points="408.48,126.1,398.6311,126.1029,403.9115,128.132,401.8824,133.4124,408.48,126.1" style="stroke:#181818;stroke-width:1;"/><text fill="#000000" font-family="sans-serif" font-size="13" lengthAdjust="spacing" textLength="46.3506" x="358.53" y="180.0669">Escape</text></g><!--link Aberto to Fechado--><g class="link" data-entity-1="ent0005" data-entity-2="ent0003" data-link-type="dependency" data-source-line="4" id="lnk8"><path d="M413.1,213.66 C420.84,191.66 430.1981,165.0797 437.9481,143.0597" fill="none" id="Aberto-to-Fechado-1" style="stroke:#181818;stroke-width:1;"/><polygon fill="#181818" points="439.94,137.4,433.179,144.5616,438.28,142.1164,440.7252,147.2175,439.94,137.4" style="stroke:#181818;stroke-width:1;"/><text fill="#000000" font-family="sans-serif" font-size="13" lengthAdjust="spacing" textLength="145.9453" x="430.53" y="180.0669">clique no bot&#227;o fechar</text></g><!--link Aberto to Fechado--><g class="link" data-entity-1="ent0005" data-entity-2="ent0003" data-link-type="dependency" data-source-line="5" id="lnk9"><path d="M438.46,232.71 C485.59,224.59 567.05,207.49 584.53,184 C612.51,146.39 543.6535,127.9549 494.1835,119.4649" fill="none" id="Aberto-to-Fechado-2" style="stroke:#181818;stroke-width:1;"/><polygon fill="#181818" points="488.27,118.45,496.4637,123.9147,493.198,119.2957,497.8169,116.03,488.27,118.45" style="stroke:#181818;stroke-width:1;"/><text fill="#000000" font-family="sans-serif" font-size="13" lengthAdjust="spacing" textLength="111.5791" x="591.53" y="180.0669">clique no overlay</text></g><!--link Aberto to Aberto--><g class="link" data-entity-1="ent0005" data-entity-2="ent0005" data-link-type="dependency" data-source-line="6" id="lnk10"><path d="M438.34,227.59 C456.46,225.65 472.98,229.45 472.98,239 C472.98,248.55 462.4263,252.9855 444.3063,251.0555" fill="none" id="Aberto-to-Aberto" style="stroke:#181818;stroke-width:1;"/><polygon fill="#181818" points="438.34,250.42,446.8657,255.3507,443.3119,250.9496,447.713,247.3957,438.34,250.42" style="stroke:#181818;stroke-width:1;"/><text fill="#000000" font-family="sans-serif" font-size="13" lengthAdjust="spacing" textLength="180.9082" x="478.98" y="243.5669">clique na imagem ampliada</text></g><!--link Fechado to *end*--><g class="link" data-entity-1="ent0003" data-entity-2="ent0011" data-link-type="dependency" data-source-line="7" id="lnk12"><path d="M488.4,113.24 C542.58,115.24 640.79,125 711.53,167 C737.62,182.49 754.759,208.3187 763.609,223.7087" fill="none" id="Fechado-to-*end*" style="stroke:#181818;stroke-width:1;"/><polygon fill="#181818" points="766.6,228.91,765.581,219.114,764.1075,224.5756,758.6459,223.102,766.6,228.91" style="stroke:#181818;stroke-width:1;"/></g><?plantuml-src YzQALT3LjLDmIqtEI4p9vuBIO377fDIYadm5AuN4aioonCFB3o_ELm1AbHHbfgUd5Ybe9ETa5fQcwhlcbQGMwRiM5m2Lv6joGNKX6GeqmRKuER4W5RiSn1Y5l7o5fFmIa1rf8AaYGehporABSX8haPN17GnJbQYGcPkOdfgha9XRa9EPc9A8uhzehLW0?></g></svg>