<svg xmlns="http://www.w3.org/2000/svg" xmlns:xlink="http://www.w3.org/1999/xlink" contentStyleType="text/css" data-diagram-type="STATE" height="393px" preserveAspectRatio="none" style="width:853px;height:393px;background:#FFFFFF;" version="1.1" viewBox="0 0 853 393" width="853px" zoomAndPan="magnify"><?plantuml 1.2026.4beta2?><defs/><g><g class="start_entity" data-qualified-name=".start." data-source-line="1" id="ent0002"><ellipse cx="59.54" cy="16" fill="#222222" rx="10" ry="10" style="stroke:#222222;stroke-width:1;"/></g><g class="entity" data-qualified-name="Inicial" id="ent0003"><rect fill="#F1F1F1" height="50" rx="12.5" ry="12.5" style="stroke:#181818;stroke-width:0.5;" width="60.9473" x="29.06" y="103"/><line style="stroke:#181818;stroke-width:0.5;" x1="29.06" x2="90.0073" y1="129.2969" y2="129.2969"/><text fill="#000000" font-family="sans-serif" font-size="14" lengthAdjust="spacing" textLength="40.9473" x="39.06" y="120.9951">Inicial</text></g><g class="entity" data-qualified-name="Selecionada" id="ent0005"><rect fill="#F1F1F1" height="50" rx="12.5" ry="12.5" style="stroke:#181818;stroke-width:0.5;" width="105.0732" x="7" y="230"/><line style="stroke:#181818;stroke-width:0.5;" x1="7" x2="112.0732" y1="256.2969" y2="256.2969"/><text fill="#000000" font-family="sans-serif" font-size="14" lengthAdjust="spacing" textLength="85.0732" x="17" y="247.9951">Selecionada</text></g><g class="end_entity" data-qualified-name=".end." data-source-line="6" id="ent0010"><ellipse cx="59.54" cy="368" fill="none" rx="11" ry="11" style="stroke:#222222;stroke-width:1;"/><ellipse cx="59.54" cy="368" fill="#222222" rx="6" ry="6" style="stroke:#222222;stroke-width:1;"/></g><!--link *start* to Inicial--><g class="link" data-entity-1="ent0002" data-entity-2="ent0003" data-link-type="dependency" data-source-line="1" id="lnk4"><path d="M59.54,26.38 C59.54,43.11 59.54,72.59 59.54,96.63" fill="none" id="*start*-to-Inicial" style="stroke:#181818;stroke-width:1;"/><polygon fill="#181818" points="59.54,102.63,63.54,93.63,59.54,97.63,55.54,93.63,59.54,102.63" style="stroke:#181818;stroke-width:1;"/><text fill="#000000" font-family="sans-serif" font-size="13" lengthAdjust="spacing" textLength="217.3818" x="60.54" y="69.0669">monta com primeira gest&#227;o ativa</text></g><!--link Inicial to Selecionada--><g class="link" data-entity-1="ent0003" data-entity-2="ent0005" data-link-type="dependency" data-source-line="2" id="lnk6"><path d="M59.54,153.4 C59.54,175.42 59.54,201.66 59.54,223.66" fill="none" id="Inicial-to-Selecionada" style="stroke:#181818;stroke-width:1;"/><polygon fill="#181818" points="59.54,229.66,63.54,220.66,59.54,224.66,55.54,220.66,59.54,229.66" style="stroke:#181818;stroke-width:1;"/><text fill="#000000" font-family="sans-serif" font-size="13" lengthAdjust="spacing" textLength="96.4971" x="60.54" y="196.0669">clique em card</text></g><!--link Selecionada to Selecionada--><g class="link" data-entity-1="ent0005" data-entity-2="ent0005" data-link-type="dependency" data-source-line="3" id="lnk7"><path d="M112.53,251.04 C131.56,250.95 147.07,252.27 147.07,255 C147.07,257.73 137.5599,259.0784 118.5299,258.9884" fill="none" id="Selecionada-to-Selecionada" style="stroke:#181818;stroke-width:1;"/><polygon fill="#181818" points="112.53,258.96,121.511,263.0025,117.5299,258.9836,121.5488,255.0026,112.53,258.96" style="stroke:#181818;stroke-width:1;"/><text fill="#000000" font-family="sans-serif" font-size="13" lengthAdjust="spacing" textLength="304.3574" x="153.07" y="259.5669">ArrowUp / ArrowDown / ArrowLeft / ArrowRight</text></g><!--link Selecionada to Selecionada--><g class="link" data-entity-1="ent0005" data-entity-2="ent0005" data-link-type="dependency" data-source-line="4" id="lnk8"><path d="M112.35,250.14 C224.22,244.79 463.07,246.41 463.07,255 C463.07,263.59 230.2132,265.4966 118.3432,260.1466" fill="none" id="Selecionada-to-Selecionada-1" style="stroke:#181818;stroke-width:1;"/><polygon fill="#181818" points="112.35,259.86,121.1487,264.2854,117.3443,260.0988,121.5308,256.2945,112.35,259.86" style="stroke:#181818;stroke-width:1;"/><text fill="#000000" font-family="sans-serif" font-size="13" lengthAdjust="spacing" textLength="200.2749" x="469.07" y="259.5669">Home (primeira) / End (&#250;ltima)</text></g><!--link Selecionada to Selecionada--><g class="link" data-entity-1="ent0005" data-entity-2="ent0005" data-link-type="dependency" data-source-line="5" id="lnk9"><path d="M112.36,249.03 C265.39,239.47 675.07,241.46 675.07,255 C675.07,268.54 271.3783,270.9041 118.3483,261.3441" fill="none" id="Selecionada-to-Selecionada-2" style="stroke:#181818;stroke-width:1;"/><polygon fill="#181818" points="112.36,260.97,121.0931,265.5234,117.3503,261.2817,121.5919,257.5389,112.36,260.97" style="stroke:#181818;stroke-width:1;"/><text fill="#000000" font-family="sans-serif" font-size="13" lengthAdjust="spacing" textLength="151.7217" x="681.07" y="259.5669">atualiza painel aria-live</text></g><!--link Selecionada to *end*--><g class="link" data-entity-1="ent0005" data-entity-2="ent0010" data-link-type="dependency" data-source-line="6" id="lnk11"><path d="M59.54,280.36 C59.54,304.23 59.54,333.46 59.54,350.71" fill="none" id="Selecionada-to-*end*" style="stroke:#181818;stroke-width:1;"/><polygon fill="#181818" points="59.54,356.71,63.54,347.71,59.54,351.71,55.54,347.71,59.54,356.71" style="stroke:#181818;stroke-width:1;"/><text fill="#000000" font-family="sans-serif" font-size="13" lengthAdjust="spacing" textLength="87.1216" x="60.54" y="323.0669">sai da p&#225;gina</text></g><?plantuml-src XP0z2i9048LxJ_5A5O9z2a5GKB1Ih8B5OpF6WVs9wsh0suYtiCt5Z4X0iB3xc7dVCBnYl4UMJR7oQfGMELpmYJ31eOxgH2DHoJcrZm0clNBGHz_QLgmO3PubEzLOFLq4uc0Ooy7tyZSyYp4qkngJ3yr3utjUoo7rlD7gcFwSMWOd6FRlZZfruKiCswTDwZZwOpDTQFL6r5Gl5epApEfLVhoYAol7cOfkKBVtIZrV?></g></svg>