<svg xmlns="http://www.w3.org/2000/svg" viewBox="0 0 1200 800" role="img" aria-labelledby="title desc">
  <title id="title">Comarcas de Santa Catarina</title>
  <desc id="desc">Ilustracao editorial com mapa de Santa Catarina, costa, serra, documentos e arquitetura judiciaria.</desc>
  <defs>
    <linearGradient id="paper" x1="0" x2="1" y1="0" y2="1">
      <stop offset="0" stop-color="#fbfaf7" />
      <stop offset="1" stop-color="#efe8dc" />
    </linearGradient>
    <linearGradient id="sea" x1="0" x2="1" y1="0" y2="1">
      <stop offset="0" stop-color="#0b7f88" />
      <stop offset="1" stop-color="#0fb4a5" />
    </linearGradient>
    <linearGradient id="red" x1="0" x2="1" y1="0" y2="1">
      <stop offset="0" stop-color="#8b1d2c" />
      <stop offset="1" stop-color="#5d1420" />
    </linearGradient>
    <filter id="softShadow" x="-20%" y="-20%" width="140%" height="140%">
      <feDropShadow dx="0" dy="18" stdDeviation="18" flood-color="#1f1e1c" flood-opacity="0.18" />
    </filter>
    <pattern id="fineGrid" width="36" height="36" patternUnits="userSpaceOnUse">
      <path d="M36 0H0V36" fill="none" stroke="#d8cfc2" stroke-width="1" opacity="0.55" />
    </pattern>
  </defs>

  <rect width="1200" height="800" fill="#efe8dc" />
  <rect width="1200" height="800" fill="url(#fineGrid)" opacity="0.55" />
  <path d="M0 0H1200V800H0Z" fill="url(#paper)" opacity="0.88" />

  <path d="M815 0H1200V800H760C819 708 850 614 852 519C854 409 807 329 822 220C832 147 862 75 815 0Z" fill="url(#sea)" opacity="0.92" />
  <path d="M842 85C905 144 891 235 930 308C979 399 1069 427 1103 520C1135 608 1092 716 1138 800" fill="none" stroke="#d9f4ef" stroke-width="10" opacity="0.38" />
  <path d="M854 0C804 92 792 172 797 255C805 382 866 478 838 598C821 671 786 734 760 800" fill="none" stroke="#fbfaf7" stroke-width="4" opacity="0.72" />

  <g filter="url(#softShadow)">
    <path d="M114 156H731V668H114Z" fill="#fbfaf7" />
    <path d="M114 156H731V668H114Z" fill="none" stroke="#2d2925" stroke-width="2" opacity="0.18" />
    <path d="M114 156H731V237H114Z" fill="#332f2a" opacity="0.07" />
  </g>

  <g opacity="0.9">
    <path d="M276 306C315 274 363 266 406 279C444 291 470 323 514 318C562 313 589 274 640 281C676 286 704 312 728 342C699 382 666 408 624 419C575 431 542 415 498 428C456 441 429 474 384 474C336 474 303 436 260 424C229 415 197 419 168 429C183 384 215 338 276 306Z" fill="#d8cfc2" opacity="0.78" />
    <path d="M272 320C323 292 372 294 415 314C462 335 493 353 547 337C594 323 639 312 691 349" fill="none" stroke="#8b1d2c" stroke-width="3" opacity="0.72" />
    <path d="M318 382C377 356 438 371 485 389C535 408 591 423 655 386" fill="none" stroke="#0b7f88" stroke-width="3" opacity="0.7" />
    <circle cx="669" cy="356" r="11" fill="#8b1d2c" />
    <path d="M669 334L686 369H652Z" fill="#8b1d2c" opacity="0.82" />
    <text x="688" y="359" font-family="Space Grotesk, Arial, sans-serif" font-size="18" fill="#332f2a">Florianopolis</text>
  </g>

  <g transform="translate(157 452)">
    <path d="M0 58H300V182H0Z" fill="#f5f0e8" stroke="#d8cfc2" />
    <path d="M20 58H280V44H20Z" fill="#8b1d2c" />
    <path d="M38 44L150 0L262 44Z" fill="#f5f0e8" stroke="#8b1d2c" stroke-width="4" />
    <path d="M56 78V162M108 78V162M160 78V162M212 78V162M264 78V162" stroke="#766b60" stroke-width="8" stroke-linecap="round" />
    <path d="M-10 182H310" stroke="#8b1d2c" stroke-width="8" stroke-linecap="round" />
  </g>

  <g transform="translate(473 461) rotate(-4)">
    <rect x="0" y="0" width="207" height="142" rx="4" fill="#fffaf1" stroke="#d8cfc2" />
    <path d="M24 34H174M24 58H183M24 82H160M24 106H190" stroke="#8a8178" stroke-width="4" opacity="0.55" />
    <circle cx="173" cy="32" r="18" fill="none" stroke="#8b1d2c" stroke-width="4" opacity="0.72" />
  </g>

  <g transform="translate(842 146)">
    <text x="0" y="0" font-family="Cormorant Garamond, Georgia, serif" font-size="70" fill="#fbfaf7" letter-spacing="-1">Comarcas</text>
    <text x="4" y="42" font-family="Space Grotesk, Arial, sans-serif" font-size="19" fill="#e4f8f5" letter-spacing="6">DE SANTA CATARINA</text>
    <path d="M4 72H254" stroke="#fbfaf7" stroke-width="2" opacity="0.68" />
    <text x="4" y="116" font-family="Source Serif 4, Georgia, serif" font-size="22" fill="#fbfaf7" opacity="0.88">territorio, memoria e justica</text>
  </g>

  <g transform="translate(134 99)">
    <text x="0" y="0" font-family="Space Grotesk, Arial, sans-serif" font-size="17" fill="#8b1d2c" letter-spacing="5">HISTORIA ESCRITA</text>
    <text x="0" y="43" font-family="Cormorant Garamond, Georgia, serif" font-size="48" fill="#1f1e1c">TJSC</text>
  </g>
</svg>
