<svg xmlns="http://www.w3.org/2000/svg" viewBox="0 0 1200 800" role="img" aria-labelledby="title desc">
  <title id="title">M - Meu Lugar na Sociedade</title>
  <desc id="desc">Ilustracao editorial para exposicao sobre pertencimento, sociedade e memoria institucional.</desc>
  <defs>
    <linearGradient id="bg" x1="0" x2="1" y1="0" y2="1">
      <stop offset="0" stop-color="#fbfaf7" />
      <stop offset="1" stop-color="#e8dfd1" />
    </linearGradient>
    <linearGradient id="red" x1="0" x2="1" y1="0" y2="1">
      <stop offset="0" stop-color="#8b1d2c" />
      <stop offset="1" stop-color="#4d111c" />
    </linearGradient>
    <filter id="shadow" x="-20%" y="-20%" width="140%" height="140%">
      <feDropShadow dx="0" dy="18" stdDeviation="20" flood-color="#1f1e1c" flood-opacity="0.18" />
    </filter>
    <pattern id="grid" width="40" height="40" patternUnits="userSpaceOnUse">
      <path d="M40 0H0V40" fill="none" stroke="#d7cec0" stroke-width="1" opacity="0.52" />
    </pattern>
  </defs>

  <rect width="1200" height="800" fill="url(#bg)" />
  <rect width="1200" height="800" fill="url(#grid)" opacity="0.5" />
  <path d="M0 565C173 519 306 528 468 580C638 635 783 700 1200 626V800H0Z" fill="#8b1d2c" opacity="0.08" />

  <g transform="translate(106 112)">
    <text x="0" y="0" font-family="Space Grotesk, Arial, sans-serif" font-size="17" fill="#8b1d2c" letter-spacing="6">EXPOSICAO</text>
    <text x="0" y="78" font-family="Cormorant Garamond, Georgia, serif" font-size="104" fill="#1f1e1c">M</text>
    <text x="88" y="78" font-family="Cormorant Garamond, Georgia, serif" font-size="52" fill="#1f1e1c">Meu Lugar</text>
    <text x="92" y="128" font-family="Source Serif 4, Georgia, serif" font-size="28" fill="#635b52">na Sociedade</text>
    <path d="M0 162H374" stroke="#8b1d2c" stroke-width="3" />
  </g>

  <g transform="translate(118 338)" filter="url(#shadow)">
    <rect x="0" y="0" width="360" height="282" rx="4" fill="#fbfaf7" stroke="#d8cfc2" />
    <path d="M37 66H323M37 103H283M37 140H309M37 177H243" stroke="#897d70" stroke-width="8" stroke-linecap="round" opacity="0.45" />
    <circle cx="292" cy="204" r="33" fill="none" stroke="#8b1d2c" stroke-width="7" opacity="0.8" />
    <path d="M292 166V242M254 204H330" stroke="#8b1d2c" stroke-width="7" stroke-linecap="round" opacity="0.8" />
  </g>

  <g transform="translate(566 202)">
    <path d="M250 0C388 0 500 112 500 250S388 500 250 500S0 388 0 250S112 0 250 0Z" fill="#f3ede3" stroke="#d8cfc2" stroke-width="2" />
    <path d="M250 54C357 54 444 141 444 248C444 356 357 443 250 443C142 443 56 356 56 248C56 141 142 54 250 54Z" fill="none" stroke="#8b1d2c" stroke-width="3" opacity="0.35" />
    <g fill="#1f1e1c">
      <circle cx="250" cy="168" r="48" opacity="0.86" />
      <path d="M166 340C177 279 207 236 250 236C293 236 323 279 334 340Z" opacity="0.86" />
      <circle cx="121" cy="238" r="34" opacity="0.52" />
      <path d="M62 367C71 321 93 286 121 286C150 286 172 321 181 367Z" opacity="0.52" />
      <circle cx="379" cy="238" r="34" opacity="0.52" />
      <path d="M319 367C329 321 351 286 379 286C408 286 430 321 439 367Z" opacity="0.52" />
    </g>
    <path d="M117 414H383" stroke="url(#red)" stroke-width="10" stroke-linecap="round" />
  </g>

  <g transform="translate(846 94)">
    <path d="M0 0H210V148H0Z" fill="#8b1d2c" opacity="0.92" />
    <path d="M27 42H183M27 75H149M27 108H171" stroke="#fbfaf7" stroke-width="7" stroke-linecap="round" opacity="0.78" />
  </g>
</svg>
